<mxfile host="app.diagrams.net" modified="2022-03-21T09:21:14.159Z" agent="5.0 (X11)" etag="Mzt43dgRNdHonHUAKuU3" version="17.1.0" type="github">
  <diagram id="h_JSGg5LhwVuMZE9Zb_7" name="Page-1">
    <mxGraphModel dx="1571" dy="857" grid="1" gridSize="10" guides="1" tooltips="1" connect="1" arrows="1" fold="1" page="1" pageScale="1" pageWidth="1654" pageHeight="1169" math="0" shadow="0">
      <root>
        <mxCell id="0" />
        <mxCell id="1" parent="0" />
        <mxCell id="dk1dqKSrUgwjKV17HSef-1" value="" style="rounded=0;whiteSpace=wrap;html=1;fillColor=#d5e8d4;strokeColor=#82b366;" vertex="1" parent="1">
          <mxGeometry x="100" y="360" width="430" height="30" as="geometry" />
        </mxCell>
        <mxCell id="dk1dqKSrUgwjKV17HSef-2" value="" style="rounded=0;whiteSpace=wrap;html=1;fillColor=#e1d5e7;strokeColor=#9673a6;" vertex="1" parent="1">
          <mxGeometry x="100" y="330" width="430" height="30" as="geometry" />
        </mxCell>
        <mxCell id="dk1dqKSrUgwjKV17HSef-3" value="" style="rounded=0;whiteSpace=wrap;html=1;fillColor=#f8cecc;strokeColor=#b85450;" vertex="1" parent="1">
          <mxGeometry x="100" y="300" width="430" height="30" as="geometry" />
        </mxCell>
        <mxCell id="dk1dqKSrUgwjKV17HSef-4" value="" style="rounded=0;whiteSpace=wrap;html=1;fillColor=#ffe6cc;strokeColor=#d79b00;" vertex="1" parent="1">
          <mxGeometry x="100" y="270" width="430" height="30" as="geometry" />
        </mxCell>
        <mxCell id="dk1dqKSrUgwjKV17HSef-5" value="" style="rounded=0;whiteSpace=wrap;html=1;fillColor=#fff2cc;strokeColor=#d6b656;" vertex="1" parent="1">
          <mxGeometry x="100" y="240" width="430" height="30" as="geometry" />
        </mxCell>
        <mxCell id="dk1dqKSrUgwjKV17HSef-6" value="" style="rounded=0;whiteSpace=wrap;html=1;fillColor=#dae8fc;strokeColor=#6c8ebf;" vertex="1" parent="1">
          <mxGeometry x="100" y="210" width="430" height="30" as="geometry" />
        </mxCell>
        <mxCell id="dk1dqKSrUgwjKV17HSef-7" value="&lt;font style=&quot;font-size: 14px&quot;&gt;Signal Dimension&lt;b&gt; (Ls, C)&lt;/b&gt;&lt;/font&gt;" style="text;html=1;align=center;verticalAlign=middle;resizable=0;points=[];autosize=1;strokeColor=none;fillColor=none;" vertex="1" parent="1">
          <mxGeometry x="230" y="400" width="170" height="20" as="geometry" />
        </mxCell>
        <mxCell id="dk1dqKSrUgwjKV17HSef-8" value="" style="shape=flexArrow;endArrow=classic;html=1;rounded=0;fontSize=14;endWidth=24;endSize=9.33;width=20;fillColor=#bac8d3;strokeColor=#23445d;" edge="1" parent="1">
          <mxGeometry width="50" height="50" relative="1" as="geometry">
            <mxPoint x="580" y="299" as="sourcePoint" />
            <mxPoint x="680" y="299" as="targetPoint" />
          </mxGeometry>
        </mxCell>
        <mxCell id="dk1dqKSrUgwjKV17HSef-25" value="" style="endArrow=none;html=1;rounded=0;fontSize=14;elbow=vertical;jumpStyle=none;entryX=1;entryY=0.5;entryDx=0;entryDy=0;fillColor=#dae8fc;strokeColor=#6c8ebf;" edge="1" parent="1" target="dk1dqKSrUgwjKV17HSef-6">
          <mxGeometry width="50" height="50" relative="1" as="geometry">
            <mxPoint x="100" y="230" as="sourcePoint" />
            <mxPoint x="400" y="220" as="targetPoint" />
            <Array as="points">
              <mxPoint x="140" y="230" />
              <mxPoint x="150" y="210" />
              <mxPoint x="160" y="225" />
              <mxPoint x="190" y="230" />
              <mxPoint x="200" y="220" />
              <mxPoint x="220" y="230" />
              <mxPoint x="230" y="220" />
              <mxPoint x="250" y="230" />
              <mxPoint x="280" y="220" />
              <mxPoint x="315" y="230" />
              <mxPoint x="340" y="220" />
              <mxPoint x="360" y="230" />
              <mxPoint x="380" y="220" />
              <mxPoint x="410" y="230" />
              <mxPoint x="440" y="220" />
              <mxPoint x="500" y="230" />
            </Array>
          </mxGeometry>
        </mxCell>
        <mxCell id="dk1dqKSrUgwjKV17HSef-26" value="" style="endArrow=none;html=1;rounded=0;fontSize=14;elbow=vertical;jumpStyle=none;entryX=1;entryY=0.5;entryDx=0;entryDy=0;fillColor=#fff2cc;strokeColor=#d6b656;" edge="1" parent="1">
          <mxGeometry width="50" height="50" relative="1" as="geometry">
            <mxPoint x="100" y="265" as="sourcePoint" />
            <mxPoint x="530" y="260" as="targetPoint" />
            <Array as="points">
              <mxPoint x="120" y="250" />
              <mxPoint x="160" y="260" />
              <mxPoint x="170" y="250" />
              <mxPoint x="190" y="265" />
              <mxPoint x="210" y="255" />
              <mxPoint x="220" y="265" />
              <mxPoint x="250" y="255" />
              <mxPoint x="260" y="250" />
              <mxPoint x="270" y="260" />
              <mxPoint x="300" y="250" />
              <mxPoint x="315" y="265" />
              <mxPoint x="320" y="250" />
              <mxPoint x="340" y="250" />
              <mxPoint x="360" y="265" />
              <mxPoint x="380" y="255" />
              <mxPoint x="410" y="265" />
              <mxPoint x="440" y="255" />
              <mxPoint x="480" y="250" />
              <mxPoint x="500" y="265" />
            </Array>
          </mxGeometry>
        </mxCell>
        <mxCell id="dk1dqKSrUgwjKV17HSef-27" value="" style="endArrow=none;html=1;rounded=0;fontSize=14;elbow=vertical;jumpStyle=none;entryX=1;entryY=0.5;entryDx=0;entryDy=0;fillColor=#d5e8d4;strokeColor=#82b366;" edge="1" parent="1">
          <mxGeometry width="50" height="50" relative="1" as="geometry">
            <mxPoint x="100" y="382.5" as="sourcePoint" />
            <mxPoint x="530" y="377.5" as="targetPoint" />
            <Array as="points">
              <mxPoint x="120" y="367.5" />
              <mxPoint x="160" y="377.5" />
              <mxPoint x="170" y="367.5" />
              <mxPoint x="190" y="382.5" />
              <mxPoint x="210" y="372.5" />
              <mxPoint x="220" y="382.5" />
              <mxPoint x="250" y="372.5" />
              <mxPoint x="260" y="367.5" />
              <mxPoint x="270" y="377.5" />
              <mxPoint x="300" y="367.5" />
              <mxPoint x="315" y="382.5" />
              <mxPoint x="320" y="367.5" />
              <mxPoint x="340" y="367.5" />
              <mxPoint x="360" y="382.5" />
              <mxPoint x="380" y="372.5" />
              <mxPoint x="410" y="382.5" />
              <mxPoint x="440" y="372.5" />
              <mxPoint x="470" y="383" />
            </Array>
          </mxGeometry>
        </mxCell>
        <mxCell id="dk1dqKSrUgwjKV17HSef-28" value="" style="endArrow=none;html=1;rounded=0;fontSize=14;elbow=vertical;jumpStyle=none;entryX=1;entryY=0.5;entryDx=0;entryDy=0;fillColor=#f8cecc;strokeColor=#b85450;" edge="1" parent="1">
          <mxGeometry width="50" height="50" relative="1" as="geometry">
            <mxPoint x="100" y="325" as="sourcePoint" />
            <mxPoint x="530" y="320" as="targetPoint" />
            <Array as="points">
              <mxPoint x="140" y="325" />
              <mxPoint x="150" y="305" />
              <mxPoint x="160" y="320" />
              <mxPoint x="190" y="325" />
              <mxPoint x="200" y="315" />
              <mxPoint x="220" y="325" />
              <mxPoint x="230" y="315" />
              <mxPoint x="250" y="325" />
              <mxPoint x="280" y="315" />
              <mxPoint x="315" y="325" />
              <mxPoint x="340" y="315" />
              <mxPoint x="360" y="325" />
              <mxPoint x="380" y="315" />
              <mxPoint x="410" y="325" />
              <mxPoint x="440" y="315" />
              <mxPoint x="490" y="310" />
              <mxPoint x="500" y="325" />
            </Array>
          </mxGeometry>
        </mxCell>
        <mxCell id="dk1dqKSrUgwjKV17HSef-29" value="" style="endArrow=none;html=1;rounded=0;fontSize=14;elbow=vertical;jumpStyle=none;entryX=1;entryY=0.5;entryDx=0;entryDy=0;fillColor=#ffe6cc;strokeColor=#d79b00;" edge="1" parent="1">
          <mxGeometry width="50" height="50" relative="1" as="geometry">
            <mxPoint x="100" y="290" as="sourcePoint" />
            <mxPoint x="530" y="285" as="targetPoint" />
            <Array as="points">
              <mxPoint x="120" y="280" />
              <mxPoint x="140" y="290" />
              <mxPoint x="160" y="285" />
              <mxPoint x="180" y="290" />
              <mxPoint x="230" y="280" />
              <mxPoint x="260" y="290" />
              <mxPoint x="290" y="280" />
              <mxPoint x="330" y="290" />
              <mxPoint x="380" y="280" />
              <mxPoint x="410" y="290" />
              <mxPoint x="440" y="280" />
              <mxPoint x="500" y="290" />
            </Array>
          </mxGeometry>
        </mxCell>
        <mxCell id="dk1dqKSrUgwjKV17HSef-30" value="" style="endArrow=none;html=1;rounded=0;fontSize=14;elbow=vertical;jumpStyle=none;entryX=1;entryY=0.5;entryDx=0;entryDy=0;fillColor=#e1d5e7;strokeColor=#9673a6;" edge="1" parent="1">
          <mxGeometry width="50" height="50" relative="1" as="geometry">
            <mxPoint x="100" y="350" as="sourcePoint" />
            <mxPoint x="530" y="345" as="targetPoint" />
            <Array as="points">
              <mxPoint x="120" y="340" />
              <mxPoint x="140" y="350" />
              <mxPoint x="160" y="345" />
              <mxPoint x="180" y="350" />
              <mxPoint x="230" y="340" />
              <mxPoint x="260" y="350" />
              <mxPoint x="290" y="340" />
              <mxPoint x="330" y="350" />
              <mxPoint x="380" y="340" />
              <mxPoint x="410" y="350" />
              <mxPoint x="440" y="340" />
              <mxPoint x="480" y="340" />
              <mxPoint x="500" y="350" />
            </Array>
          </mxGeometry>
        </mxCell>
        <mxCell id="dk1dqKSrUgwjKV17HSef-35" value="" style="rounded=0;whiteSpace=wrap;html=1;fontSize=14;fillColor=#d5e8d4;strokeColor=#82b366;" vertex="1" parent="1">
          <mxGeometry x="710" y="290" width="180" height="20" as="geometry" />
        </mxCell>
        <mxCell id="dk1dqKSrUgwjKV17HSef-36" value="" style="rounded=0;whiteSpace=wrap;html=1;fontSize=14;fillColor=#f8cecc;strokeColor=#b85450;" vertex="1" parent="1">
          <mxGeometry x="710" y="250" width="180" height="20" as="geometry" />
        </mxCell>
        <mxCell id="dk1dqKSrUgwjKV17HSef-37" value="" style="rounded=0;whiteSpace=wrap;html=1;fontSize=14;fillColor=#ffe6cc;strokeColor=#d79b00;" vertex="1" parent="1">
          <mxGeometry x="710" y="230" width="180" height="20" as="geometry" />
        </mxCell>
        <mxCell id="dk1dqKSrUgwjKV17HSef-38" value="" style="rounded=0;whiteSpace=wrap;html=1;fontSize=14;fillColor=#fff2cc;strokeColor=#d6b656;" vertex="1" parent="1">
          <mxGeometry x="710" y="210" width="180" height="20" as="geometry" />
        </mxCell>
        <mxCell id="dk1dqKSrUgwjKV17HSef-39" value="" style="rounded=0;whiteSpace=wrap;html=1;fontSize=14;fillColor=#dae8fc;strokeColor=#6c8ebf;" vertex="1" parent="1">
          <mxGeometry x="710" y="190" width="180" height="20" as="geometry" />
        </mxCell>
        <mxCell id="dk1dqKSrUgwjKV17HSef-40" value="" style="rounded=0;whiteSpace=wrap;html=1;fontSize=14;fillColor=#e1d5e7;strokeColor=#9673a6;" vertex="1" parent="1">
          <mxGeometry x="710" y="270" width="180" height="20" as="geometry" />
        </mxCell>
        <mxCell id="dk1dqKSrUgwjKV17HSef-53" value="" style="endArrow=none;html=1;rounded=0;fontSize=14;elbow=vertical;jumpStyle=none;fillColor=#dae8fc;strokeColor=#6c8ebf;" edge="1" parent="1">
          <mxGeometry width="50" height="50" relative="1" as="geometry">
            <mxPoint x="710" y="199.5" as="sourcePoint" />
            <mxPoint x="890" y="199.5" as="targetPoint" />
            <Array as="points">
              <mxPoint x="754" y="194" />
              <mxPoint x="780" y="200" />
              <mxPoint x="820" y="194" />
              <mxPoint x="850" y="200" />
              <mxPoint x="870" y="194" />
            </Array>
          </mxGeometry>
        </mxCell>
        <mxCell id="dk1dqKSrUgwjKV17HSef-54" value="" style="endArrow=none;html=1;rounded=0;fontSize=14;elbow=vertical;jumpStyle=none;fillColor=#fff2cc;strokeColor=#d6b656;" edge="1" parent="1">
          <mxGeometry width="50" height="50" relative="1" as="geometry">
            <mxPoint x="710" y="219.5" as="sourcePoint" />
            <mxPoint x="890" y="219.5" as="targetPoint" />
            <Array as="points">
              <mxPoint x="740" y="220" />
              <mxPoint x="754" y="214" />
              <mxPoint x="780" y="220" />
              <mxPoint x="820" y="214" />
              <mxPoint x="830" y="220" />
              <mxPoint x="850" y="220" />
              <mxPoint x="870" y="214" />
            </Array>
          </mxGeometry>
        </mxCell>
        <mxCell id="dk1dqKSrUgwjKV17HSef-57" value="" style="endArrow=none;html=1;rounded=0;fontSize=14;elbow=vertical;jumpStyle=none;fillColor=#e1d5e7;strokeColor=#9673a6;" edge="1" parent="1">
          <mxGeometry width="50" height="50" relative="1" as="geometry">
            <mxPoint x="710" y="277" as="sourcePoint" />
            <mxPoint x="890" y="282.5" as="targetPoint" />
            <Array as="points">
              <mxPoint x="740" y="283" />
              <mxPoint x="754" y="277" />
              <mxPoint x="780" y="283" />
              <mxPoint x="790" y="277" />
              <mxPoint x="810" y="283" />
              <mxPoint x="820" y="277" />
              <mxPoint x="830" y="283" />
              <mxPoint x="850" y="283" />
              <mxPoint x="870" y="277" />
            </Array>
          </mxGeometry>
        </mxCell>
        <mxCell id="dk1dqKSrUgwjKV17HSef-58" value="" style="endArrow=none;html=1;rounded=0;fontSize=14;elbow=vertical;jumpStyle=none;fillColor=#d5e8d4;strokeColor=#82b366;" edge="1" parent="1">
          <mxGeometry width="50" height="50" relative="1" as="geometry">
            <mxPoint x="710" y="302.5" as="sourcePoint" />
            <mxPoint x="890" y="302.5" as="targetPoint" />
            <Array as="points">
              <mxPoint x="740" y="303" />
              <mxPoint x="754" y="297" />
              <mxPoint x="780" y="303" />
              <mxPoint x="820" y="297" />
              <mxPoint x="830" y="303" />
              <mxPoint x="850" y="303" />
              <mxPoint x="870" y="297" />
            </Array>
          </mxGeometry>
        </mxCell>
        <mxCell id="dk1dqKSrUgwjKV17HSef-59" value="" style="endArrow=none;html=1;rounded=0;fontSize=14;elbow=vertical;jumpStyle=none;fillColor=#ffe6cc;strokeColor=#d79b00;" edge="1" parent="1">
          <mxGeometry width="50" height="50" relative="1" as="geometry">
            <mxPoint x="710" y="237" as="sourcePoint" />
            <mxPoint x="890" y="242.5" as="targetPoint" />
            <Array as="points">
              <mxPoint x="740" y="243" />
              <mxPoint x="754" y="237" />
              <mxPoint x="780" y="243" />
              <mxPoint x="790" y="237" />
              <mxPoint x="810" y="243" />
              <mxPoint x="820" y="237" />
              <mxPoint x="830" y="243" />
              <mxPoint x="850" y="243" />
              <mxPoint x="870" y="237" />
            </Array>
          </mxGeometry>
        </mxCell>
        <mxCell id="dk1dqKSrUgwjKV17HSef-60" value="" style="endArrow=none;html=1;rounded=0;fontSize=14;elbow=vertical;jumpStyle=none;fillColor=#f8cecc;strokeColor=#b85450;" edge="1" parent="1">
          <mxGeometry width="50" height="50" relative="1" as="geometry">
            <mxPoint x="710" y="262.5" as="sourcePoint" />
            <mxPoint x="890" y="262.5" as="targetPoint" />
            <Array as="points">
              <mxPoint x="754" y="257" />
              <mxPoint x="780" y="263" />
              <mxPoint x="820" y="257" />
              <mxPoint x="850" y="263" />
              <mxPoint x="870" y="257" />
            </Array>
          </mxGeometry>
        </mxCell>
        <mxCell id="dk1dqKSrUgwjKV17HSef-61" value="" style="rounded=0;whiteSpace=wrap;html=1;fontSize=14;fillColor=#d5e8d4;strokeColor=#82b366;" vertex="1" parent="1">
          <mxGeometry x="720" y="300" width="180" height="20" as="geometry" />
        </mxCell>
        <mxCell id="dk1dqKSrUgwjKV17HSef-62" value="" style="rounded=0;whiteSpace=wrap;html=1;fontSize=14;fillColor=#f8cecc;strokeColor=#b85450;" vertex="1" parent="1">
          <mxGeometry x="720" y="260" width="180" height="20" as="geometry" />
        </mxCell>
        <mxCell id="dk1dqKSrUgwjKV17HSef-63" value="" style="rounded=0;whiteSpace=wrap;html=1;fontSize=14;fillColor=#ffe6cc;strokeColor=#d79b00;" vertex="1" parent="1">
          <mxGeometry x="720" y="240" width="180" height="20" as="geometry" />
        </mxCell>
        <mxCell id="dk1dqKSrUgwjKV17HSef-64" value="" style="rounded=0;whiteSpace=wrap;html=1;fontSize=14;fillColor=#fff2cc;strokeColor=#d6b656;" vertex="1" parent="1">
          <mxGeometry x="720" y="220" width="180" height="20" as="geometry" />
        </mxCell>
        <mxCell id="dk1dqKSrUgwjKV17HSef-65" value="" style="rounded=0;whiteSpace=wrap;html=1;fontSize=14;fillColor=#dae8fc;strokeColor=#6c8ebf;" vertex="1" parent="1">
          <mxGeometry x="720" y="200" width="180" height="20" as="geometry" />
        </mxCell>
        <mxCell id="dk1dqKSrUgwjKV17HSef-66" value="" style="rounded=0;whiteSpace=wrap;html=1;fontSize=14;fillColor=#e1d5e7;strokeColor=#9673a6;" vertex="1" parent="1">
          <mxGeometry x="720" y="280" width="180" height="20" as="geometry" />
        </mxCell>
        <mxCell id="dk1dqKSrUgwjKV17HSef-67" value="" style="endArrow=none;html=1;rounded=0;fontSize=14;elbow=vertical;jumpStyle=none;fillColor=#dae8fc;strokeColor=#6c8ebf;" edge="1" parent="1">
          <mxGeometry width="50" height="50" relative="1" as="geometry">
            <mxPoint x="720" y="209.5" as="sourcePoint" />
            <mxPoint x="900" y="209.5" as="targetPoint" />
            <Array as="points">
              <mxPoint x="764" y="204" />
              <mxPoint x="790" y="210" />
              <mxPoint x="830" y="204" />
              <mxPoint x="860" y="210" />
              <mxPoint x="880" y="204" />
            </Array>
          </mxGeometry>
        </mxCell>
        <mxCell id="dk1dqKSrUgwjKV17HSef-68" value="" style="endArrow=none;html=1;rounded=0;fontSize=14;elbow=vertical;jumpStyle=none;fillColor=#fff2cc;strokeColor=#d6b656;" edge="1" parent="1">
          <mxGeometry width="50" height="50" relative="1" as="geometry">
            <mxPoint x="720" y="229.5" as="sourcePoint" />
            <mxPoint x="900" y="229.5" as="targetPoint" />
            <Array as="points">
              <mxPoint x="750" y="230" />
              <mxPoint x="764" y="224" />
              <mxPoint x="790" y="230" />
              <mxPoint x="830" y="224" />
              <mxPoint x="840" y="230" />
              <mxPoint x="860" y="230" />
              <mxPoint x="880" y="224" />
            </Array>
          </mxGeometry>
        </mxCell>
        <mxCell id="dk1dqKSrUgwjKV17HSef-69" value="" style="endArrow=none;html=1;rounded=0;fontSize=14;elbow=vertical;jumpStyle=none;fillColor=#e1d5e7;strokeColor=#9673a6;" edge="1" parent="1">
          <mxGeometry width="50" height="50" relative="1" as="geometry">
            <mxPoint x="720" y="287" as="sourcePoint" />
            <mxPoint x="900" y="292.5" as="targetPoint" />
            <Array as="points">
              <mxPoint x="750" y="293" />
              <mxPoint x="764" y="287" />
              <mxPoint x="790" y="293" />
              <mxPoint x="800" y="287" />
              <mxPoint x="820" y="293" />
              <mxPoint x="830" y="287" />
              <mxPoint x="840" y="293" />
              <mxPoint x="860" y="293" />
              <mxPoint x="880" y="287" />
            </Array>
          </mxGeometry>
        </mxCell>
        <mxCell id="dk1dqKSrUgwjKV17HSef-70" value="" style="endArrow=none;html=1;rounded=0;fontSize=14;elbow=vertical;jumpStyle=none;fillColor=#d5e8d4;strokeColor=#82b366;" edge="1" parent="1">
          <mxGeometry width="50" height="50" relative="1" as="geometry">
            <mxPoint x="720" y="312.5" as="sourcePoint" />
            <mxPoint x="900" y="312.5" as="targetPoint" />
            <Array as="points">
              <mxPoint x="750" y="313" />
              <mxPoint x="764" y="307" />
              <mxPoint x="790" y="313" />
              <mxPoint x="830" y="307" />
              <mxPoint x="840" y="313" />
              <mxPoint x="860" y="313" />
              <mxPoint x="880" y="307" />
            </Array>
          </mxGeometry>
        </mxCell>
        <mxCell id="dk1dqKSrUgwjKV17HSef-71" value="" style="endArrow=none;html=1;rounded=0;fontSize=14;elbow=vertical;jumpStyle=none;fillColor=#ffe6cc;strokeColor=#d79b00;" edge="1" parent="1">
          <mxGeometry width="50" height="50" relative="1" as="geometry">
            <mxPoint x="720" y="247" as="sourcePoint" />
            <mxPoint x="900" y="252.5" as="targetPoint" />
            <Array as="points">
              <mxPoint x="750" y="253" />
              <mxPoint x="764" y="247" />
              <mxPoint x="790" y="253" />
              <mxPoint x="800" y="247" />
              <mxPoint x="820" y="253" />
              <mxPoint x="830" y="247" />
              <mxPoint x="840" y="253" />
              <mxPoint x="860" y="253" />
              <mxPoint x="880" y="247" />
            </Array>
          </mxGeometry>
        </mxCell>
        <mxCell id="dk1dqKSrUgwjKV17HSef-72" value="" style="endArrow=none;html=1;rounded=0;fontSize=14;elbow=vertical;jumpStyle=none;fillColor=#f8cecc;strokeColor=#b85450;" edge="1" parent="1">
          <mxGeometry width="50" height="50" relative="1" as="geometry">
            <mxPoint x="720" y="272.5" as="sourcePoint" />
            <mxPoint x="900" y="272.5" as="targetPoint" />
            <Array as="points">
              <mxPoint x="764" y="267" />
              <mxPoint x="790" y="273" />
              <mxPoint x="830" y="267" />
              <mxPoint x="860" y="273" />
              <mxPoint x="880" y="267" />
            </Array>
          </mxGeometry>
        </mxCell>
        <mxCell id="dk1dqKSrUgwjKV17HSef-73" value="" style="rounded=0;whiteSpace=wrap;html=1;fontSize=14;fillColor=#d5e8d4;strokeColor=#82b366;" vertex="1" parent="1">
          <mxGeometry x="730" y="310" width="180" height="20" as="geometry" />
        </mxCell>
        <mxCell id="dk1dqKSrUgwjKV17HSef-74" value="" style="rounded=0;whiteSpace=wrap;html=1;fontSize=14;fillColor=#f8cecc;strokeColor=#b85450;" vertex="1" parent="1">
          <mxGeometry x="730" y="270" width="180" height="20" as="geometry" />
        </mxCell>
        <mxCell id="dk1dqKSrUgwjKV17HSef-75" value="" style="rounded=0;whiteSpace=wrap;html=1;fontSize=14;fillColor=#ffe6cc;strokeColor=#d79b00;" vertex="1" parent="1">
          <mxGeometry x="730" y="250" width="180" height="20" as="geometry" />
        </mxCell>
        <mxCell id="dk1dqKSrUgwjKV17HSef-76" value="" style="rounded=0;whiteSpace=wrap;html=1;fontSize=14;fillColor=#fff2cc;strokeColor=#d6b656;" vertex="1" parent="1">
          <mxGeometry x="730" y="230" width="180" height="20" as="geometry" />
        </mxCell>
        <mxCell id="dk1dqKSrUgwjKV17HSef-77" value="" style="rounded=0;whiteSpace=wrap;html=1;fontSize=14;fillColor=#dae8fc;strokeColor=#6c8ebf;" vertex="1" parent="1">
          <mxGeometry x="730" y="210" width="180" height="20" as="geometry" />
        </mxCell>
        <mxCell id="dk1dqKSrUgwjKV17HSef-78" value="" style="rounded=0;whiteSpace=wrap;html=1;fontSize=14;fillColor=#e1d5e7;strokeColor=#9673a6;" vertex="1" parent="1">
          <mxGeometry x="730" y="290" width="180" height="20" as="geometry" />
        </mxCell>
        <mxCell id="dk1dqKSrUgwjKV17HSef-79" value="" style="endArrow=none;html=1;rounded=0;fontSize=14;elbow=vertical;jumpStyle=none;fillColor=#dae8fc;strokeColor=#6c8ebf;" edge="1" parent="1">
          <mxGeometry width="50" height="50" relative="1" as="geometry">
            <mxPoint x="730" y="219.5" as="sourcePoint" />
            <mxPoint x="910" y="219.5" as="targetPoint" />
            <Array as="points">
              <mxPoint x="774" y="214" />
              <mxPoint x="800" y="220" />
              <mxPoint x="840" y="214" />
              <mxPoint x="870" y="220" />
              <mxPoint x="890" y="214" />
            </Array>
          </mxGeometry>
        </mxCell>
        <mxCell id="dk1dqKSrUgwjKV17HSef-80" value="" style="endArrow=none;html=1;rounded=0;fontSize=14;elbow=vertical;jumpStyle=none;fillColor=#fff2cc;strokeColor=#d6b656;" edge="1" parent="1">
          <mxGeometry width="50" height="50" relative="1" as="geometry">
            <mxPoint x="730" y="239.5" as="sourcePoint" />
            <mxPoint x="910" y="239.5" as="targetPoint" />
            <Array as="points">
              <mxPoint x="760" y="240" />
              <mxPoint x="774" y="234" />
              <mxPoint x="800" y="240" />
              <mxPoint x="840" y="234" />
              <mxPoint x="850" y="240" />
              <mxPoint x="870" y="240" />
              <mxPoint x="890" y="234" />
            </Array>
          </mxGeometry>
        </mxCell>
        <mxCell id="dk1dqKSrUgwjKV17HSef-81" value="" style="endArrow=none;html=1;rounded=0;fontSize=14;elbow=vertical;jumpStyle=none;fillColor=#e1d5e7;strokeColor=#9673a6;" edge="1" parent="1">
          <mxGeometry width="50" height="50" relative="1" as="geometry">
            <mxPoint x="730" y="297" as="sourcePoint" />
            <mxPoint x="910" y="302.5" as="targetPoint" />
            <Array as="points">
              <mxPoint x="760" y="303" />
              <mxPoint x="774" y="297" />
              <mxPoint x="800" y="303" />
              <mxPoint x="810" y="297" />
              <mxPoint x="830" y="303" />
              <mxPoint x="840" y="297" />
              <mxPoint x="850" y="303" />
              <mxPoint x="870" y="303" />
              <mxPoint x="890" y="297" />
            </Array>
          </mxGeometry>
        </mxCell>
        <mxCell id="dk1dqKSrUgwjKV17HSef-82" value="" style="endArrow=none;html=1;rounded=0;fontSize=14;elbow=vertical;jumpStyle=none;fillColor=#d5e8d4;strokeColor=#82b366;" edge="1" parent="1">
          <mxGeometry width="50" height="50" relative="1" as="geometry">
            <mxPoint x="730" y="322.5" as="sourcePoint" />
            <mxPoint x="910" y="322.5" as="targetPoint" />
            <Array as="points">
              <mxPoint x="760" y="323" />
              <mxPoint x="774" y="317" />
              <mxPoint x="800" y="323" />
              <mxPoint x="840" y="317" />
              <mxPoint x="850" y="323" />
              <mxPoint x="870" y="323" />
              <mxPoint x="890" y="317" />
            </Array>
          </mxGeometry>
        </mxCell>
        <mxCell id="dk1dqKSrUgwjKV17HSef-83" value="" style="endArrow=none;html=1;rounded=0;fontSize=14;elbow=vertical;jumpStyle=none;fillColor=#ffe6cc;strokeColor=#d79b00;" edge="1" parent="1">
          <mxGeometry width="50" height="50" relative="1" as="geometry">
            <mxPoint x="730" y="257" as="sourcePoint" />
            <mxPoint x="910" y="262.5" as="targetPoint" />
            <Array as="points">
              <mxPoint x="760" y="263" />
              <mxPoint x="774" y="257" />
              <mxPoint x="800" y="263" />
              <mxPoint x="810" y="257" />
              <mxPoint x="830" y="263" />
              <mxPoint x="840" y="257" />
              <mxPoint x="850" y="263" />
              <mxPoint x="870" y="263" />
              <mxPoint x="890" y="257" />
            </Array>
          </mxGeometry>
        </mxCell>
        <mxCell id="dk1dqKSrUgwjKV17HSef-84" value="" style="endArrow=none;html=1;rounded=0;fontSize=14;elbow=vertical;jumpStyle=none;fillColor=#f8cecc;strokeColor=#b85450;" edge="1" parent="1">
          <mxGeometry width="50" height="50" relative="1" as="geometry">
            <mxPoint x="730" y="282.5" as="sourcePoint" />
            <mxPoint x="910" y="282.5" as="targetPoint" />
            <Array as="points">
              <mxPoint x="774" y="277" />
              <mxPoint x="800" y="283" />
              <mxPoint x="840" y="277" />
              <mxPoint x="870" y="283" />
              <mxPoint x="890" y="277" />
            </Array>
          </mxGeometry>
        </mxCell>
        <mxCell id="dk1dqKSrUgwjKV17HSef-85" value="" style="rounded=0;whiteSpace=wrap;html=1;fontSize=14;fillColor=#d5e8d4;strokeColor=#82b366;" vertex="1" parent="1">
          <mxGeometry x="740" y="320" width="180" height="20" as="geometry" />
        </mxCell>
        <mxCell id="dk1dqKSrUgwjKV17HSef-86" value="" style="rounded=0;whiteSpace=wrap;html=1;fontSize=14;fillColor=#f8cecc;strokeColor=#b85450;" vertex="1" parent="1">
          <mxGeometry x="740" y="280" width="180" height="20" as="geometry" />
        </mxCell>
        <mxCell id="dk1dqKSrUgwjKV17HSef-87" value="" style="rounded=0;whiteSpace=wrap;html=1;fontSize=14;fillColor=#ffe6cc;strokeColor=#d79b00;" vertex="1" parent="1">
          <mxGeometry x="740" y="260" width="180" height="20" as="geometry" />
        </mxCell>
        <mxCell id="dk1dqKSrUgwjKV17HSef-88" value="" style="rounded=0;whiteSpace=wrap;html=1;fontSize=14;fillColor=#fff2cc;strokeColor=#d6b656;" vertex="1" parent="1">
          <mxGeometry x="740" y="240" width="180" height="20" as="geometry" />
        </mxCell>
        <mxCell id="dk1dqKSrUgwjKV17HSef-89" value="" style="rounded=0;whiteSpace=wrap;html=1;fontSize=14;fillColor=#dae8fc;strokeColor=#6c8ebf;" vertex="1" parent="1">
          <mxGeometry x="740" y="220" width="180" height="20" as="geometry" />
        </mxCell>
        <mxCell id="dk1dqKSrUgwjKV17HSef-90" value="" style="rounded=0;whiteSpace=wrap;html=1;fontSize=14;fillColor=#e1d5e7;strokeColor=#9673a6;" vertex="1" parent="1">
          <mxGeometry x="740" y="300" width="180" height="20" as="geometry" />
        </mxCell>
        <mxCell id="dk1dqKSrUgwjKV17HSef-91" value="" style="endArrow=none;html=1;rounded=0;fontSize=14;elbow=vertical;jumpStyle=none;fillColor=#dae8fc;strokeColor=#6c8ebf;" edge="1" parent="1">
          <mxGeometry width="50" height="50" relative="1" as="geometry">
            <mxPoint x="740" y="229.5" as="sourcePoint" />
            <mxPoint x="920" y="229.5" as="targetPoint" />
            <Array as="points">
              <mxPoint x="784" y="224" />
              <mxPoint x="810" y="230" />
              <mxPoint x="850" y="224" />
              <mxPoint x="880" y="230" />
              <mxPoint x="900" y="224" />
            </Array>
          </mxGeometry>
        </mxCell>
        <mxCell id="dk1dqKSrUgwjKV17HSef-92" value="" style="endArrow=none;html=1;rounded=0;fontSize=14;elbow=vertical;jumpStyle=none;fillColor=#fff2cc;strokeColor=#d6b656;" edge="1" parent="1">
          <mxGeometry width="50" height="50" relative="1" as="geometry">
            <mxPoint x="740" y="249.5" as="sourcePoint" />
            <mxPoint x="920" y="249.5" as="targetPoint" />
            <Array as="points">
              <mxPoint x="770" y="250" />
              <mxPoint x="784" y="244" />
              <mxPoint x="810" y="250" />
              <mxPoint x="850" y="244" />
              <mxPoint x="860" y="250" />
              <mxPoint x="880" y="250" />
              <mxPoint x="900" y="244" />
            </Array>
          </mxGeometry>
        </mxCell>
        <mxCell id="dk1dqKSrUgwjKV17HSef-93" value="" style="endArrow=none;html=1;rounded=0;fontSize=14;elbow=vertical;jumpStyle=none;fillColor=#e1d5e7;strokeColor=#9673a6;" edge="1" parent="1">
          <mxGeometry width="50" height="50" relative="1" as="geometry">
            <mxPoint x="740" y="307" as="sourcePoint" />
            <mxPoint x="920" y="312.5" as="targetPoint" />
            <Array as="points">
              <mxPoint x="770" y="313" />
              <mxPoint x="784" y="307" />
              <mxPoint x="810" y="313" />
              <mxPoint x="820" y="307" />
              <mxPoint x="840" y="313" />
              <mxPoint x="850" y="307" />
              <mxPoint x="860" y="313" />
              <mxPoint x="880" y="313" />
              <mxPoint x="900" y="307" />
            </Array>
          </mxGeometry>
        </mxCell>
        <mxCell id="dk1dqKSrUgwjKV17HSef-94" value="" style="endArrow=none;html=1;rounded=0;fontSize=14;elbow=vertical;jumpStyle=none;fillColor=#d5e8d4;strokeColor=#82b366;" edge="1" parent="1">
          <mxGeometry width="50" height="50" relative="1" as="geometry">
            <mxPoint x="740" y="332.5" as="sourcePoint" />
            <mxPoint x="920" y="332.5" as="targetPoint" />
            <Array as="points">
              <mxPoint x="770" y="333" />
              <mxPoint x="784" y="327" />
              <mxPoint x="810" y="333" />
              <mxPoint x="850" y="327" />
              <mxPoint x="860" y="333" />
              <mxPoint x="880" y="333" />
              <mxPoint x="900" y="327" />
            </Array>
          </mxGeometry>
        </mxCell>
        <mxCell id="dk1dqKSrUgwjKV17HSef-95" value="" style="endArrow=none;html=1;rounded=0;fontSize=14;elbow=vertical;jumpStyle=none;fillColor=#ffe6cc;strokeColor=#d79b00;" edge="1" parent="1">
          <mxGeometry width="50" height="50" relative="1" as="geometry">
            <mxPoint x="740" y="267" as="sourcePoint" />
            <mxPoint x="920" y="272.5" as="targetPoint" />
            <Array as="points">
              <mxPoint x="770" y="273" />
              <mxPoint x="784" y="267" />
              <mxPoint x="810" y="273" />
              <mxPoint x="820" y="267" />
              <mxPoint x="840" y="273" />
              <mxPoint x="850" y="267" />
              <mxPoint x="860" y="273" />
              <mxPoint x="880" y="273" />
              <mxPoint x="900" y="267" />
            </Array>
          </mxGeometry>
        </mxCell>
        <mxCell id="dk1dqKSrUgwjKV17HSef-96" value="" style="endArrow=none;html=1;rounded=0;fontSize=14;elbow=vertical;jumpStyle=none;fillColor=#f8cecc;strokeColor=#b85450;" edge="1" parent="1">
          <mxGeometry width="50" height="50" relative="1" as="geometry">
            <mxPoint x="740" y="292.5" as="sourcePoint" />
            <mxPoint x="920" y="292.5" as="targetPoint" />
            <Array as="points">
              <mxPoint x="784" y="287" />
              <mxPoint x="810" y="293" />
              <mxPoint x="850" y="287" />
              <mxPoint x="880" y="293" />
              <mxPoint x="900" y="287" />
            </Array>
          </mxGeometry>
        </mxCell>
        <mxCell id="dk1dqKSrUgwjKV17HSef-97" value="" style="rounded=0;whiteSpace=wrap;html=1;fontSize=14;fillColor=#d5e8d4;strokeColor=#82b366;" vertex="1" parent="1">
          <mxGeometry x="750" y="330" width="180" height="20" as="geometry" />
        </mxCell>
        <mxCell id="dk1dqKSrUgwjKV17HSef-98" value="" style="rounded=0;whiteSpace=wrap;html=1;fontSize=14;fillColor=#f8cecc;strokeColor=#b85450;" vertex="1" parent="1">
          <mxGeometry x="750" y="290" width="180" height="20" as="geometry" />
        </mxCell>
        <mxCell id="dk1dqKSrUgwjKV17HSef-99" value="" style="rounded=0;whiteSpace=wrap;html=1;fontSize=14;fillColor=#ffe6cc;strokeColor=#d79b00;" vertex="1" parent="1">
          <mxGeometry x="750" y="270" width="180" height="20" as="geometry" />
        </mxCell>
        <mxCell id="dk1dqKSrUgwjKV17HSef-100" value="" style="rounded=0;whiteSpace=wrap;html=1;fontSize=14;fillColor=#fff2cc;strokeColor=#d6b656;" vertex="1" parent="1">
          <mxGeometry x="750" y="250" width="180" height="20" as="geometry" />
        </mxCell>
        <mxCell id="dk1dqKSrUgwjKV17HSef-101" value="" style="rounded=0;whiteSpace=wrap;html=1;fontSize=14;fillColor=#dae8fc;strokeColor=#6c8ebf;" vertex="1" parent="1">
          <mxGeometry x="750" y="230" width="180" height="20" as="geometry" />
        </mxCell>
        <mxCell id="dk1dqKSrUgwjKV17HSef-102" value="" style="rounded=0;whiteSpace=wrap;html=1;fontSize=14;fillColor=#e1d5e7;strokeColor=#9673a6;" vertex="1" parent="1">
          <mxGeometry x="750" y="310" width="180" height="20" as="geometry" />
        </mxCell>
        <mxCell id="dk1dqKSrUgwjKV17HSef-103" value="" style="endArrow=none;html=1;rounded=0;fontSize=14;elbow=vertical;jumpStyle=none;fillColor=#dae8fc;strokeColor=#6c8ebf;" edge="1" parent="1">
          <mxGeometry width="50" height="50" relative="1" as="geometry">
            <mxPoint x="750" y="239.5" as="sourcePoint" />
            <mxPoint x="930" y="239.5" as="targetPoint" />
            <Array as="points">
              <mxPoint x="794" y="234" />
              <mxPoint x="820" y="240" />
              <mxPoint x="860" y="234" />
              <mxPoint x="890" y="240" />
              <mxPoint x="910" y="234" />
            </Array>
          </mxGeometry>
        </mxCell>
        <mxCell id="dk1dqKSrUgwjKV17HSef-104" value="" style="endArrow=none;html=1;rounded=0;fontSize=14;elbow=vertical;jumpStyle=none;fillColor=#fff2cc;strokeColor=#d6b656;" edge="1" parent="1">
          <mxGeometry width="50" height="50" relative="1" as="geometry">
            <mxPoint x="750" y="259.5" as="sourcePoint" />
            <mxPoint x="930" y="259.5" as="targetPoint" />
            <Array as="points">
              <mxPoint x="780" y="260" />
              <mxPoint x="794" y="254" />
              <mxPoint x="820" y="260" />
              <mxPoint x="860" y="254" />
              <mxPoint x="870" y="260" />
              <mxPoint x="890" y="260" />
              <mxPoint x="910" y="254" />
            </Array>
          </mxGeometry>
        </mxCell>
        <mxCell id="dk1dqKSrUgwjKV17HSef-105" value="" style="endArrow=none;html=1;rounded=0;fontSize=14;elbow=vertical;jumpStyle=none;fillColor=#e1d5e7;strokeColor=#9673a6;" edge="1" parent="1">
          <mxGeometry width="50" height="50" relative="1" as="geometry">
            <mxPoint x="750" y="317" as="sourcePoint" />
            <mxPoint x="930" y="322.5" as="targetPoint" />
            <Array as="points">
              <mxPoint x="780" y="323" />
              <mxPoint x="794" y="317" />
              <mxPoint x="820" y="323" />
              <mxPoint x="830" y="317" />
              <mxPoint x="850" y="323" />
              <mxPoint x="860" y="317" />
              <mxPoint x="870" y="323" />
              <mxPoint x="890" y="323" />
              <mxPoint x="910" y="317" />
            </Array>
          </mxGeometry>
        </mxCell>
        <mxCell id="dk1dqKSrUgwjKV17HSef-106" value="" style="endArrow=none;html=1;rounded=0;fontSize=14;elbow=vertical;jumpStyle=none;fillColor=#d5e8d4;strokeColor=#82b366;" edge="1" parent="1">
          <mxGeometry width="50" height="50" relative="1" as="geometry">
            <mxPoint x="750" y="342.5" as="sourcePoint" />
            <mxPoint x="930" y="342.5" as="targetPoint" />
            <Array as="points">
              <mxPoint x="780" y="343" />
              <mxPoint x="794" y="337" />
              <mxPoint x="820" y="343" />
              <mxPoint x="860" y="337" />
              <mxPoint x="870" y="343" />
              <mxPoint x="890" y="343" />
              <mxPoint x="910" y="337" />
            </Array>
          </mxGeometry>
        </mxCell>
        <mxCell id="dk1dqKSrUgwjKV17HSef-107" value="" style="endArrow=none;html=1;rounded=0;fontSize=14;elbow=vertical;jumpStyle=none;fillColor=#ffe6cc;strokeColor=#d79b00;" edge="1" parent="1">
          <mxGeometry width="50" height="50" relative="1" as="geometry">
            <mxPoint x="750" y="277" as="sourcePoint" />
            <mxPoint x="930" y="282.5" as="targetPoint" />
            <Array as="points">
              <mxPoint x="780" y="283" />
              <mxPoint x="794" y="277" />
              <mxPoint x="820" y="283" />
              <mxPoint x="830" y="277" />
              <mxPoint x="850" y="283" />
              <mxPoint x="860" y="277" />
              <mxPoint x="870" y="283" />
              <mxPoint x="890" y="283" />
              <mxPoint x="910" y="277" />
            </Array>
          </mxGeometry>
        </mxCell>
        <mxCell id="dk1dqKSrUgwjKV17HSef-108" value="" style="endArrow=none;html=1;rounded=0;fontSize=14;elbow=vertical;jumpStyle=none;fillColor=#f8cecc;strokeColor=#b85450;" edge="1" parent="1">
          <mxGeometry width="50" height="50" relative="1" as="geometry">
            <mxPoint x="750" y="302.5" as="sourcePoint" />
            <mxPoint x="930" y="302.5" as="targetPoint" />
            <Array as="points">
              <mxPoint x="794" y="297" />
              <mxPoint x="820" y="303" />
              <mxPoint x="860" y="297" />
              <mxPoint x="890" y="303" />
              <mxPoint x="910" y="297" />
            </Array>
          </mxGeometry>
        </mxCell>
        <mxCell id="dk1dqKSrUgwjKV17HSef-109" value="" style="rounded=0;whiteSpace=wrap;html=1;fontSize=14;fillColor=#d5e8d4;strokeColor=#82b366;" vertex="1" parent="1">
          <mxGeometry x="760" y="340" width="180" height="20" as="geometry" />
        </mxCell>
        <mxCell id="dk1dqKSrUgwjKV17HSef-110" value="" style="rounded=0;whiteSpace=wrap;html=1;fontSize=14;fillColor=#f8cecc;strokeColor=#b85450;" vertex="1" parent="1">
          <mxGeometry x="760" y="300" width="180" height="20" as="geometry" />
        </mxCell>
        <mxCell id="dk1dqKSrUgwjKV17HSef-111" value="" style="rounded=0;whiteSpace=wrap;html=1;fontSize=14;fillColor=#ffe6cc;strokeColor=#d79b00;" vertex="1" parent="1">
          <mxGeometry x="760" y="280" width="180" height="20" as="geometry" />
        </mxCell>
        <mxCell id="dk1dqKSrUgwjKV17HSef-112" value="" style="rounded=0;whiteSpace=wrap;html=1;fontSize=14;fillColor=#fff2cc;strokeColor=#d6b656;" vertex="1" parent="1">
          <mxGeometry x="760" y="260" width="180" height="20" as="geometry" />
        </mxCell>
        <mxCell id="dk1dqKSrUgwjKV17HSef-113" value="" style="rounded=0;whiteSpace=wrap;html=1;fontSize=14;fillColor=#dae8fc;strokeColor=#6c8ebf;" vertex="1" parent="1">
          <mxGeometry x="760" y="240" width="180" height="20" as="geometry" />
        </mxCell>
        <mxCell id="dk1dqKSrUgwjKV17HSef-114" value="" style="rounded=0;whiteSpace=wrap;html=1;fontSize=14;fillColor=#e1d5e7;strokeColor=#9673a6;" vertex="1" parent="1">
          <mxGeometry x="760" y="320" width="180" height="20" as="geometry" />
        </mxCell>
        <mxCell id="dk1dqKSrUgwjKV17HSef-115" value="" style="endArrow=none;html=1;rounded=0;fontSize=14;elbow=vertical;jumpStyle=none;fillColor=#dae8fc;strokeColor=#6c8ebf;" edge="1" parent="1">
          <mxGeometry width="50" height="50" relative="1" as="geometry">
            <mxPoint x="760" y="249.5" as="sourcePoint" />
            <mxPoint x="940" y="249.5" as="targetPoint" />
            <Array as="points">
              <mxPoint x="804" y="244" />
              <mxPoint x="830" y="250" />
              <mxPoint x="870" y="244" />
              <mxPoint x="900" y="250" />
              <mxPoint x="920" y="244" />
            </Array>
          </mxGeometry>
        </mxCell>
        <mxCell id="dk1dqKSrUgwjKV17HSef-116" value="" style="endArrow=none;html=1;rounded=0;fontSize=14;elbow=vertical;jumpStyle=none;fillColor=#fff2cc;strokeColor=#d6b656;" edge="1" parent="1">
          <mxGeometry width="50" height="50" relative="1" as="geometry">
            <mxPoint x="760" y="269.5" as="sourcePoint" />
            <mxPoint x="940" y="269.5" as="targetPoint" />
            <Array as="points">
              <mxPoint x="790" y="270" />
              <mxPoint x="804" y="264" />
              <mxPoint x="830" y="270" />
              <mxPoint x="870" y="264" />
              <mxPoint x="880" y="270" />
              <mxPoint x="900" y="270" />
              <mxPoint x="920" y="264" />
            </Array>
          </mxGeometry>
        </mxCell>
        <mxCell id="dk1dqKSrUgwjKV17HSef-117" value="" style="endArrow=none;html=1;rounded=0;fontSize=14;elbow=vertical;jumpStyle=none;fillColor=#e1d5e7;strokeColor=#9673a6;" edge="1" parent="1">
          <mxGeometry width="50" height="50" relative="1" as="geometry">
            <mxPoint x="760" y="327" as="sourcePoint" />
            <mxPoint x="940" y="332.5" as="targetPoint" />
            <Array as="points">
              <mxPoint x="790" y="333" />
              <mxPoint x="804" y="327" />
              <mxPoint x="830" y="333" />
              <mxPoint x="840" y="327" />
              <mxPoint x="860" y="333" />
              <mxPoint x="870" y="327" />
              <mxPoint x="880" y="333" />
              <mxPoint x="900" y="333" />
              <mxPoint x="920" y="327" />
            </Array>
          </mxGeometry>
        </mxCell>
        <mxCell id="dk1dqKSrUgwjKV17HSef-118" value="" style="endArrow=none;html=1;rounded=0;fontSize=14;elbow=vertical;jumpStyle=none;fillColor=#d5e8d4;strokeColor=#82b366;" edge="1" parent="1">
          <mxGeometry width="50" height="50" relative="1" as="geometry">
            <mxPoint x="760" y="352.5" as="sourcePoint" />
            <mxPoint x="940" y="352.5" as="targetPoint" />
            <Array as="points">
              <mxPoint x="790" y="353" />
              <mxPoint x="804" y="347" />
              <mxPoint x="830" y="353" />
              <mxPoint x="870" y="347" />
              <mxPoint x="880" y="353" />
              <mxPoint x="900" y="353" />
              <mxPoint x="920" y="347" />
            </Array>
          </mxGeometry>
        </mxCell>
        <mxCell id="dk1dqKSrUgwjKV17HSef-119" value="" style="endArrow=none;html=1;rounded=0;fontSize=14;elbow=vertical;jumpStyle=none;fillColor=#ffe6cc;strokeColor=#d79b00;" edge="1" parent="1">
          <mxGeometry width="50" height="50" relative="1" as="geometry">
            <mxPoint x="760" y="287" as="sourcePoint" />
            <mxPoint x="940" y="292.5" as="targetPoint" />
            <Array as="points">
              <mxPoint x="790" y="293" />
              <mxPoint x="804" y="287" />
              <mxPoint x="830" y="293" />
              <mxPoint x="840" y="287" />
              <mxPoint x="860" y="293" />
              <mxPoint x="870" y="287" />
              <mxPoint x="880" y="293" />
              <mxPoint x="900" y="293" />
              <mxPoint x="920" y="287" />
            </Array>
          </mxGeometry>
        </mxCell>
        <mxCell id="dk1dqKSrUgwjKV17HSef-120" value="" style="endArrow=none;html=1;rounded=0;fontSize=14;elbow=vertical;jumpStyle=none;fillColor=#f8cecc;strokeColor=#b85450;" edge="1" parent="1">
          <mxGeometry width="50" height="50" relative="1" as="geometry">
            <mxPoint x="760" y="312.5" as="sourcePoint" />
            <mxPoint x="940" y="312.5" as="targetPoint" />
            <Array as="points">
              <mxPoint x="804" y="307" />
              <mxPoint x="830" y="313" />
              <mxPoint x="870" y="307" />
              <mxPoint x="900" y="313" />
              <mxPoint x="920" y="307" />
            </Array>
          </mxGeometry>
        </mxCell>
        <mxCell id="dk1dqKSrUgwjKV17HSef-121" value="" style="rounded=0;whiteSpace=wrap;html=1;fontSize=14;fillColor=#d5e8d4;strokeColor=#82b366;" vertex="1" parent="1">
          <mxGeometry x="770" y="350" width="180" height="20" as="geometry" />
        </mxCell>
        <mxCell id="dk1dqKSrUgwjKV17HSef-122" value="" style="rounded=0;whiteSpace=wrap;html=1;fontSize=14;fillColor=#f8cecc;strokeColor=#b85450;" vertex="1" parent="1">
          <mxGeometry x="770" y="310" width="180" height="20" as="geometry" />
        </mxCell>
        <mxCell id="dk1dqKSrUgwjKV17HSef-123" value="" style="rounded=0;whiteSpace=wrap;html=1;fontSize=14;fillColor=#ffe6cc;strokeColor=#d79b00;" vertex="1" parent="1">
          <mxGeometry x="770" y="290" width="180" height="20" as="geometry" />
        </mxCell>
        <mxCell id="dk1dqKSrUgwjKV17HSef-124" value="" style="rounded=0;whiteSpace=wrap;html=1;fontSize=14;fillColor=#fff2cc;strokeColor=#d6b656;" vertex="1" parent="1">
          <mxGeometry x="770" y="270" width="180" height="20" as="geometry" />
        </mxCell>
        <mxCell id="dk1dqKSrUgwjKV17HSef-125" value="" style="rounded=0;whiteSpace=wrap;html=1;fontSize=14;fillColor=#dae8fc;strokeColor=#6c8ebf;" vertex="1" parent="1">
          <mxGeometry x="770" y="250" width="180" height="20" as="geometry" />
        </mxCell>
        <mxCell id="dk1dqKSrUgwjKV17HSef-126" value="" style="rounded=0;whiteSpace=wrap;html=1;fontSize=14;fillColor=#e1d5e7;strokeColor=#9673a6;" vertex="1" parent="1">
          <mxGeometry x="770" y="330" width="180" height="20" as="geometry" />
        </mxCell>
        <mxCell id="dk1dqKSrUgwjKV17HSef-127" value="" style="endArrow=none;html=1;rounded=0;fontSize=14;elbow=vertical;jumpStyle=none;fillColor=#dae8fc;strokeColor=#6c8ebf;" edge="1" parent="1">
          <mxGeometry width="50" height="50" relative="1" as="geometry">
            <mxPoint x="770" y="259.5" as="sourcePoint" />
            <mxPoint x="950" y="259.5" as="targetPoint" />
            <Array as="points">
              <mxPoint x="814" y="254" />
              <mxPoint x="840" y="260" />
              <mxPoint x="880" y="254" />
              <mxPoint x="910" y="260" />
              <mxPoint x="930" y="254" />
            </Array>
          </mxGeometry>
        </mxCell>
        <mxCell id="dk1dqKSrUgwjKV17HSef-128" value="" style="endArrow=none;html=1;rounded=0;fontSize=14;elbow=vertical;jumpStyle=none;fillColor=#fff2cc;strokeColor=#d6b656;" edge="1" parent="1">
          <mxGeometry width="50" height="50" relative="1" as="geometry">
            <mxPoint x="770" y="279.5" as="sourcePoint" />
            <mxPoint x="950" y="279.5" as="targetPoint" />
            <Array as="points">
              <mxPoint x="800" y="280" />
              <mxPoint x="814" y="274" />
              <mxPoint x="840" y="280" />
              <mxPoint x="880" y="274" />
              <mxPoint x="890" y="280" />
              <mxPoint x="910" y="280" />
              <mxPoint x="930" y="274" />
            </Array>
          </mxGeometry>
        </mxCell>
        <mxCell id="dk1dqKSrUgwjKV17HSef-129" value="" style="endArrow=none;html=1;rounded=0;fontSize=14;elbow=vertical;jumpStyle=none;fillColor=#e1d5e7;strokeColor=#9673a6;" edge="1" parent="1">
          <mxGeometry width="50" height="50" relative="1" as="geometry">
            <mxPoint x="770" y="337" as="sourcePoint" />
            <mxPoint x="950" y="342.5" as="targetPoint" />
            <Array as="points">
              <mxPoint x="800" y="343" />
              <mxPoint x="814" y="337" />
              <mxPoint x="840" y="343" />
              <mxPoint x="850" y="337" />
              <mxPoint x="870" y="343" />
              <mxPoint x="880" y="337" />
              <mxPoint x="890" y="343" />
              <mxPoint x="910" y="343" />
              <mxPoint x="930" y="337" />
            </Array>
          </mxGeometry>
        </mxCell>
        <mxCell id="dk1dqKSrUgwjKV17HSef-130" value="" style="endArrow=none;html=1;rounded=0;fontSize=14;elbow=vertical;jumpStyle=none;fillColor=#d5e8d4;strokeColor=#82b366;" edge="1" parent="1">
          <mxGeometry width="50" height="50" relative="1" as="geometry">
            <mxPoint x="770" y="362.5" as="sourcePoint" />
            <mxPoint x="950" y="362.5" as="targetPoint" />
            <Array as="points">
              <mxPoint x="800" y="363" />
              <mxPoint x="814" y="357" />
              <mxPoint x="840" y="363" />
              <mxPoint x="880" y="357" />
              <mxPoint x="890" y="363" />
              <mxPoint x="910" y="363" />
              <mxPoint x="930" y="357" />
            </Array>
          </mxGeometry>
        </mxCell>
        <mxCell id="dk1dqKSrUgwjKV17HSef-131" value="" style="endArrow=none;html=1;rounded=0;fontSize=14;elbow=vertical;jumpStyle=none;fillColor=#ffe6cc;strokeColor=#d79b00;" edge="1" parent="1">
          <mxGeometry width="50" height="50" relative="1" as="geometry">
            <mxPoint x="770" y="297" as="sourcePoint" />
            <mxPoint x="950" y="302.5" as="targetPoint" />
            <Array as="points">
              <mxPoint x="800" y="303" />
              <mxPoint x="814" y="297" />
              <mxPoint x="840" y="303" />
              <mxPoint x="850" y="297" />
              <mxPoint x="870" y="303" />
              <mxPoint x="880" y="297" />
              <mxPoint x="890" y="303" />
              <mxPoint x="910" y="303" />
              <mxPoint x="930" y="297" />
            </Array>
          </mxGeometry>
        </mxCell>
        <mxCell id="dk1dqKSrUgwjKV17HSef-132" value="" style="endArrow=none;html=1;rounded=0;fontSize=14;elbow=vertical;jumpStyle=none;fillColor=#f8cecc;strokeColor=#b85450;" edge="1" parent="1">
          <mxGeometry width="50" height="50" relative="1" as="geometry">
            <mxPoint x="770" y="322.5" as="sourcePoint" />
            <mxPoint x="950" y="322.5" as="targetPoint" />
            <Array as="points">
              <mxPoint x="814" y="317" />
              <mxPoint x="840" y="323" />
              <mxPoint x="880" y="317" />
              <mxPoint x="910" y="323" />
              <mxPoint x="930" y="317" />
            </Array>
          </mxGeometry>
        </mxCell>
        <mxCell id="dk1dqKSrUgwjKV17HSef-133" value="" style="rounded=0;whiteSpace=wrap;html=1;fontSize=14;fillColor=#d5e8d4;strokeColor=#82b366;" vertex="1" parent="1">
          <mxGeometry x="780" y="360" width="180" height="20" as="geometry" />
        </mxCell>
        <mxCell id="dk1dqKSrUgwjKV17HSef-134" value="" style="rounded=0;whiteSpace=wrap;html=1;fontSize=14;fillColor=#f8cecc;strokeColor=#b85450;" vertex="1" parent="1">
          <mxGeometry x="780" y="320" width="180" height="20" as="geometry" />
        </mxCell>
        <mxCell id="dk1dqKSrUgwjKV17HSef-135" value="" style="rounded=0;whiteSpace=wrap;html=1;fontSize=14;fillColor=#ffe6cc;strokeColor=#d79b00;" vertex="1" parent="1">
          <mxGeometry x="780" y="300" width="180" height="20" as="geometry" />
        </mxCell>
        <mxCell id="dk1dqKSrUgwjKV17HSef-136" value="" style="rounded=0;whiteSpace=wrap;html=1;fontSize=14;fillColor=#fff2cc;strokeColor=#d6b656;" vertex="1" parent="1">
          <mxGeometry x="780" y="280" width="180" height="20" as="geometry" />
        </mxCell>
        <mxCell id="dk1dqKSrUgwjKV17HSef-137" value="" style="rounded=0;whiteSpace=wrap;html=1;fontSize=14;fillColor=#dae8fc;strokeColor=#6c8ebf;" vertex="1" parent="1">
          <mxGeometry x="780" y="260" width="180" height="20" as="geometry" />
        </mxCell>
        <mxCell id="dk1dqKSrUgwjKV17HSef-138" value="" style="rounded=0;whiteSpace=wrap;html=1;fontSize=14;fillColor=#e1d5e7;strokeColor=#9673a6;" vertex="1" parent="1">
          <mxGeometry x="780" y="340" width="180" height="20" as="geometry" />
        </mxCell>
        <mxCell id="dk1dqKSrUgwjKV17HSef-139" value="" style="endArrow=none;html=1;rounded=0;fontSize=14;elbow=vertical;jumpStyle=none;fillColor=#dae8fc;strokeColor=#6c8ebf;" edge="1" parent="1">
          <mxGeometry width="50" height="50" relative="1" as="geometry">
            <mxPoint x="780" y="269.5" as="sourcePoint" />
            <mxPoint x="960" y="269.5" as="targetPoint" />
            <Array as="points">
              <mxPoint x="824" y="264" />
              <mxPoint x="850" y="270" />
              <mxPoint x="890" y="264" />
              <mxPoint x="920" y="270" />
              <mxPoint x="940" y="264" />
            </Array>
          </mxGeometry>
        </mxCell>
        <mxCell id="dk1dqKSrUgwjKV17HSef-140" value="" style="endArrow=none;html=1;rounded=0;fontSize=14;elbow=vertical;jumpStyle=none;fillColor=#fff2cc;strokeColor=#d6b656;" edge="1" parent="1">
          <mxGeometry width="50" height="50" relative="1" as="geometry">
            <mxPoint x="780" y="289.5" as="sourcePoint" />
            <mxPoint x="960" y="289.5" as="targetPoint" />
            <Array as="points">
              <mxPoint x="810" y="290" />
              <mxPoint x="824" y="284" />
              <mxPoint x="850" y="290" />
              <mxPoint x="890" y="284" />
              <mxPoint x="900" y="290" />
              <mxPoint x="920" y="290" />
              <mxPoint x="940" y="284" />
            </Array>
          </mxGeometry>
        </mxCell>
        <mxCell id="dk1dqKSrUgwjKV17HSef-141" value="" style="endArrow=none;html=1;rounded=0;fontSize=14;elbow=vertical;jumpStyle=none;fillColor=#e1d5e7;strokeColor=#9673a6;" edge="1" parent="1">
          <mxGeometry width="50" height="50" relative="1" as="geometry">
            <mxPoint x="780" y="347" as="sourcePoint" />
            <mxPoint x="960" y="352.5" as="targetPoint" />
            <Array as="points">
              <mxPoint x="810" y="353" />
              <mxPoint x="824" y="347" />
              <mxPoint x="850" y="353" />
              <mxPoint x="860" y="347" />
              <mxPoint x="880" y="353" />
              <mxPoint x="890" y="347" />
              <mxPoint x="900" y="353" />
              <mxPoint x="920" y="353" />
              <mxPoint x="940" y="347" />
            </Array>
          </mxGeometry>
        </mxCell>
        <mxCell id="dk1dqKSrUgwjKV17HSef-142" value="" style="endArrow=none;html=1;rounded=0;fontSize=14;elbow=vertical;jumpStyle=none;fillColor=#d5e8d4;strokeColor=#82b366;" edge="1" parent="1">
          <mxGeometry width="50" height="50" relative="1" as="geometry">
            <mxPoint x="780" y="372.5" as="sourcePoint" />
            <mxPoint x="960" y="372.5" as="targetPoint" />
            <Array as="points">
              <mxPoint x="810" y="373" />
              <mxPoint x="824" y="367" />
              <mxPoint x="850" y="373" />
              <mxPoint x="890" y="367" />
              <mxPoint x="900" y="373" />
              <mxPoint x="920" y="373" />
              <mxPoint x="940" y="367" />
            </Array>
          </mxGeometry>
        </mxCell>
        <mxCell id="dk1dqKSrUgwjKV17HSef-143" value="" style="endArrow=none;html=1;rounded=0;fontSize=14;elbow=vertical;jumpStyle=none;fillColor=#ffe6cc;strokeColor=#d79b00;" edge="1" parent="1">
          <mxGeometry width="50" height="50" relative="1" as="geometry">
            <mxPoint x="780" y="307" as="sourcePoint" />
            <mxPoint x="960" y="312.5" as="targetPoint" />
            <Array as="points">
              <mxPoint x="810" y="313" />
              <mxPoint x="824" y="307" />
              <mxPoint x="850" y="313" />
              <mxPoint x="860" y="307" />
              <mxPoint x="880" y="313" />
              <mxPoint x="890" y="307" />
              <mxPoint x="900" y="313" />
              <mxPoint x="920" y="313" />
              <mxPoint x="940" y="307" />
            </Array>
          </mxGeometry>
        </mxCell>
        <mxCell id="dk1dqKSrUgwjKV17HSef-144" value="" style="endArrow=none;html=1;rounded=0;fontSize=14;elbow=vertical;jumpStyle=none;fillColor=#f8cecc;strokeColor=#b85450;" edge="1" parent="1">
          <mxGeometry width="50" height="50" relative="1" as="geometry">
            <mxPoint x="780" y="332.5" as="sourcePoint" />
            <mxPoint x="960" y="332.5" as="targetPoint" />
            <Array as="points">
              <mxPoint x="824" y="327" />
              <mxPoint x="850" y="333" />
              <mxPoint x="890" y="327" />
              <mxPoint x="920" y="333" />
              <mxPoint x="940" y="327" />
            </Array>
          </mxGeometry>
        </mxCell>
        <mxCell id="dk1dqKSrUgwjKV17HSef-145" value="" style="rounded=0;whiteSpace=wrap;html=1;fontSize=14;fillColor=#d5e8d4;strokeColor=#82b366;" vertex="1" parent="1">
          <mxGeometry x="790" y="370" width="180" height="20" as="geometry" />
        </mxCell>
        <mxCell id="dk1dqKSrUgwjKV17HSef-146" value="" style="rounded=0;whiteSpace=wrap;html=1;fontSize=14;fillColor=#f8cecc;strokeColor=#b85450;" vertex="1" parent="1">
          <mxGeometry x="790" y="330" width="180" height="20" as="geometry" />
        </mxCell>
        <mxCell id="dk1dqKSrUgwjKV17HSef-147" value="" style="rounded=0;whiteSpace=wrap;html=1;fontSize=14;fillColor=#ffe6cc;strokeColor=#d79b00;" vertex="1" parent="1">
          <mxGeometry x="790" y="310" width="180" height="20" as="geometry" />
        </mxCell>
        <mxCell id="dk1dqKSrUgwjKV17HSef-148" value="" style="rounded=0;whiteSpace=wrap;html=1;fontSize=14;fillColor=#fff2cc;strokeColor=#d6b656;" vertex="1" parent="1">
          <mxGeometry x="790" y="290" width="180" height="20" as="geometry" />
        </mxCell>
        <mxCell id="dk1dqKSrUgwjKV17HSef-149" value="" style="rounded=0;whiteSpace=wrap;html=1;fontSize=14;fillColor=#dae8fc;strokeColor=#6c8ebf;" vertex="1" parent="1">
          <mxGeometry x="790" y="270" width="180" height="20" as="geometry" />
        </mxCell>
        <mxCell id="dk1dqKSrUgwjKV17HSef-150" value="" style="rounded=0;whiteSpace=wrap;html=1;fontSize=14;fillColor=#e1d5e7;strokeColor=#9673a6;" vertex="1" parent="1">
          <mxGeometry x="790" y="350" width="180" height="20" as="geometry" />
        </mxCell>
        <mxCell id="dk1dqKSrUgwjKV17HSef-151" value="" style="endArrow=none;html=1;rounded=0;fontSize=14;elbow=vertical;jumpStyle=none;fillColor=#dae8fc;strokeColor=#6c8ebf;" edge="1" parent="1">
          <mxGeometry width="50" height="50" relative="1" as="geometry">
            <mxPoint x="790" y="279.5" as="sourcePoint" />
            <mxPoint x="970" y="279.5" as="targetPoint" />
            <Array as="points">
              <mxPoint x="834" y="274" />
              <mxPoint x="860" y="280" />
              <mxPoint x="900" y="274" />
              <mxPoint x="930" y="280" />
              <mxPoint x="950" y="274" />
            </Array>
          </mxGeometry>
        </mxCell>
        <mxCell id="dk1dqKSrUgwjKV17HSef-152" value="" style="endArrow=none;html=1;rounded=0;fontSize=14;elbow=vertical;jumpStyle=none;fillColor=#fff2cc;strokeColor=#d6b656;" edge="1" parent="1">
          <mxGeometry width="50" height="50" relative="1" as="geometry">
            <mxPoint x="790" y="299.5" as="sourcePoint" />
            <mxPoint x="970" y="299.5" as="targetPoint" />
            <Array as="points">
              <mxPoint x="820" y="300" />
              <mxPoint x="834" y="294" />
              <mxPoint x="860" y="300" />
              <mxPoint x="900" y="294" />
              <mxPoint x="910" y="300" />
              <mxPoint x="930" y="300" />
              <mxPoint x="950" y="294" />
            </Array>
          </mxGeometry>
        </mxCell>
        <mxCell id="dk1dqKSrUgwjKV17HSef-153" value="" style="endArrow=none;html=1;rounded=0;fontSize=14;elbow=vertical;jumpStyle=none;fillColor=#e1d5e7;strokeColor=#9673a6;" edge="1" parent="1">
          <mxGeometry width="50" height="50" relative="1" as="geometry">
            <mxPoint x="790" y="357" as="sourcePoint" />
            <mxPoint x="970" y="362.5" as="targetPoint" />
            <Array as="points">
              <mxPoint x="820" y="363" />
              <mxPoint x="834" y="357" />
              <mxPoint x="860" y="363" />
              <mxPoint x="870" y="357" />
              <mxPoint x="890" y="363" />
              <mxPoint x="900" y="357" />
              <mxPoint x="910" y="363" />
              <mxPoint x="930" y="363" />
              <mxPoint x="950" y="357" />
            </Array>
          </mxGeometry>
        </mxCell>
        <mxCell id="dk1dqKSrUgwjKV17HSef-154" value="" style="endArrow=none;html=1;rounded=0;fontSize=14;elbow=vertical;jumpStyle=none;fillColor=#d5e8d4;strokeColor=#82b366;" edge="1" parent="1">
          <mxGeometry width="50" height="50" relative="1" as="geometry">
            <mxPoint x="790" y="382.5" as="sourcePoint" />
            <mxPoint x="970" y="382.5" as="targetPoint" />
            <Array as="points">
              <mxPoint x="820" y="383" />
              <mxPoint x="834" y="377" />
              <mxPoint x="860" y="383" />
              <mxPoint x="900" y="377" />
              <mxPoint x="910" y="383" />
              <mxPoint x="930" y="383" />
              <mxPoint x="950" y="377" />
            </Array>
          </mxGeometry>
        </mxCell>
        <mxCell id="dk1dqKSrUgwjKV17HSef-155" value="" style="endArrow=none;html=1;rounded=0;fontSize=14;elbow=vertical;jumpStyle=none;fillColor=#ffe6cc;strokeColor=#d79b00;" edge="1" parent="1">
          <mxGeometry width="50" height="50" relative="1" as="geometry">
            <mxPoint x="790" y="317" as="sourcePoint" />
            <mxPoint x="970" y="322.5" as="targetPoint" />
            <Array as="points">
              <mxPoint x="820" y="323" />
              <mxPoint x="834" y="317" />
              <mxPoint x="860" y="323" />
              <mxPoint x="870" y="317" />
              <mxPoint x="890" y="323" />
              <mxPoint x="900" y="317" />
              <mxPoint x="910" y="323" />
              <mxPoint x="930" y="323" />
              <mxPoint x="950" y="317" />
            </Array>
          </mxGeometry>
        </mxCell>
        <mxCell id="dk1dqKSrUgwjKV17HSef-156" value="" style="endArrow=none;html=1;rounded=0;fontSize=14;elbow=vertical;jumpStyle=none;fillColor=#f8cecc;strokeColor=#b85450;" edge="1" parent="1">
          <mxGeometry width="50" height="50" relative="1" as="geometry">
            <mxPoint x="790" y="342.5" as="sourcePoint" />
            <mxPoint x="970" y="342.5" as="targetPoint" />
            <Array as="points">
              <mxPoint x="834" y="337" />
              <mxPoint x="860" y="343" />
              <mxPoint x="900" y="337" />
              <mxPoint x="930" y="343" />
              <mxPoint x="950" y="337" />
            </Array>
          </mxGeometry>
        </mxCell>
        <mxCell id="dk1dqKSrUgwjKV17HSef-157" value="Windows Set Dimension &lt;b&gt;(Nw, Ws, C)&lt;/b&gt;" style="text;html=1;align=center;verticalAlign=middle;resizable=0;points=[];autosize=1;strokeColor=none;fillColor=none;fontSize=14;" vertex="1" parent="1">
          <mxGeometry x="735" y="420" width="250" height="20" as="geometry" />
        </mxCell>
        <mxCell id="dk1dqKSrUgwjKV17HSef-158" value="" style="rounded=0;whiteSpace=wrap;html=1;fontSize=14;fillColor=#d5e8d4;strokeColor=#82b366;" vertex="1" parent="1">
          <mxGeometry x="720" y="300" width="180" height="20" as="geometry" />
        </mxCell>
        <mxCell id="dk1dqKSrUgwjKV17HSef-159" value="" style="rounded=0;whiteSpace=wrap;html=1;fontSize=14;fillColor=#f8cecc;strokeColor=#b85450;" vertex="1" parent="1">
          <mxGeometry x="720" y="260" width="180" height="20" as="geometry" />
        </mxCell>
        <mxCell id="dk1dqKSrUgwjKV17HSef-160" value="" style="rounded=0;whiteSpace=wrap;html=1;fontSize=14;fillColor=#ffe6cc;strokeColor=#d79b00;" vertex="1" parent="1">
          <mxGeometry x="720" y="240" width="180" height="20" as="geometry" />
        </mxCell>
        <mxCell id="dk1dqKSrUgwjKV17HSef-161" value="" style="rounded=0;whiteSpace=wrap;html=1;fontSize=14;fillColor=#fff2cc;strokeColor=#d6b656;" vertex="1" parent="1">
          <mxGeometry x="720" y="220" width="180" height="20" as="geometry" />
        </mxCell>
        <mxCell id="dk1dqKSrUgwjKV17HSef-162" value="" style="rounded=0;whiteSpace=wrap;html=1;fontSize=14;fillColor=#dae8fc;strokeColor=#6c8ebf;" vertex="1" parent="1">
          <mxGeometry x="720" y="200" width="180" height="20" as="geometry" />
        </mxCell>
        <mxCell id="dk1dqKSrUgwjKV17HSef-163" value="" style="rounded=0;whiteSpace=wrap;html=1;fontSize=14;fillColor=#e1d5e7;strokeColor=#9673a6;" vertex="1" parent="1">
          <mxGeometry x="720" y="280" width="180" height="20" as="geometry" />
        </mxCell>
        <mxCell id="dk1dqKSrUgwjKV17HSef-164" value="" style="endArrow=none;html=1;rounded=0;fontSize=14;elbow=vertical;jumpStyle=none;fillColor=#dae8fc;strokeColor=#6c8ebf;" edge="1" parent="1">
          <mxGeometry width="50" height="50" relative="1" as="geometry">
            <mxPoint x="720" y="209.5" as="sourcePoint" />
            <mxPoint x="900" y="209.5" as="targetPoint" />
            <Array as="points">
              <mxPoint x="764" y="204" />
              <mxPoint x="790" y="210" />
              <mxPoint x="830" y="204" />
              <mxPoint x="860" y="210" />
              <mxPoint x="880" y="204" />
            </Array>
          </mxGeometry>
        </mxCell>
        <mxCell id="dk1dqKSrUgwjKV17HSef-165" value="" style="endArrow=none;html=1;rounded=0;fontSize=14;elbow=vertical;jumpStyle=none;fillColor=#fff2cc;strokeColor=#d6b656;" edge="1" parent="1">
          <mxGeometry width="50" height="50" relative="1" as="geometry">
            <mxPoint x="720" y="229.5" as="sourcePoint" />
            <mxPoint x="900" y="229.5" as="targetPoint" />
            <Array as="points">
              <mxPoint x="750" y="230" />
              <mxPoint x="764" y="224" />
              <mxPoint x="790" y="230" />
              <mxPoint x="830" y="224" />
              <mxPoint x="840" y="230" />
              <mxPoint x="860" y="230" />
              <mxPoint x="880" y="224" />
            </Array>
          </mxGeometry>
        </mxCell>
        <mxCell id="dk1dqKSrUgwjKV17HSef-166" value="" style="endArrow=none;html=1;rounded=0;fontSize=14;elbow=vertical;jumpStyle=none;fillColor=#e1d5e7;strokeColor=#9673a6;" edge="1" parent="1">
          <mxGeometry width="50" height="50" relative="1" as="geometry">
            <mxPoint x="720" y="287" as="sourcePoint" />
            <mxPoint x="900" y="292.5" as="targetPoint" />
            <Array as="points">
              <mxPoint x="750" y="293" />
              <mxPoint x="764" y="287" />
              <mxPoint x="790" y="293" />
              <mxPoint x="800" y="287" />
              <mxPoint x="820" y="293" />
              <mxPoint x="830" y="287" />
              <mxPoint x="840" y="293" />
              <mxPoint x="860" y="293" />
              <mxPoint x="880" y="287" />
            </Array>
          </mxGeometry>
        </mxCell>
        <mxCell id="dk1dqKSrUgwjKV17HSef-167" value="" style="endArrow=none;html=1;rounded=0;fontSize=14;elbow=vertical;jumpStyle=none;fillColor=#d5e8d4;strokeColor=#82b366;" edge="1" parent="1">
          <mxGeometry width="50" height="50" relative="1" as="geometry">
            <mxPoint x="720" y="312.5" as="sourcePoint" />
            <mxPoint x="900" y="312.5" as="targetPoint" />
            <Array as="points">
              <mxPoint x="750" y="313" />
              <mxPoint x="764" y="307" />
              <mxPoint x="790" y="313" />
              <mxPoint x="830" y="307" />
              <mxPoint x="840" y="313" />
              <mxPoint x="860" y="313" />
              <mxPoint x="880" y="307" />
            </Array>
          </mxGeometry>
        </mxCell>
        <mxCell id="dk1dqKSrUgwjKV17HSef-168" value="" style="endArrow=none;html=1;rounded=0;fontSize=14;elbow=vertical;jumpStyle=none;fillColor=#ffe6cc;strokeColor=#d79b00;" edge="1" parent="1">
          <mxGeometry width="50" height="50" relative="1" as="geometry">
            <mxPoint x="720" y="247" as="sourcePoint" />
            <mxPoint x="900" y="252.5" as="targetPoint" />
            <Array as="points">
              <mxPoint x="750" y="253" />
              <mxPoint x="764" y="247" />
              <mxPoint x="790" y="253" />
              <mxPoint x="800" y="247" />
              <mxPoint x="820" y="253" />
              <mxPoint x="830" y="247" />
              <mxPoint x="840" y="253" />
              <mxPoint x="860" y="253" />
              <mxPoint x="880" y="247" />
            </Array>
          </mxGeometry>
        </mxCell>
        <mxCell id="dk1dqKSrUgwjKV17HSef-169" value="" style="endArrow=none;html=1;rounded=0;fontSize=14;elbow=vertical;jumpStyle=none;fillColor=#f8cecc;strokeColor=#b85450;" edge="1" parent="1">
          <mxGeometry width="50" height="50" relative="1" as="geometry">
            <mxPoint x="720" y="272.5" as="sourcePoint" />
            <mxPoint x="900" y="272.5" as="targetPoint" />
            <Array as="points">
              <mxPoint x="764" y="267" />
              <mxPoint x="790" y="273" />
              <mxPoint x="830" y="267" />
              <mxPoint x="860" y="273" />
              <mxPoint x="880" y="267" />
            </Array>
          </mxGeometry>
        </mxCell>
        <mxCell id="dk1dqKSrUgwjKV17HSef-170" value="" style="rounded=0;whiteSpace=wrap;html=1;fontSize=14;fillColor=#d5e8d4;strokeColor=#82b366;" vertex="1" parent="1">
          <mxGeometry x="730" y="310" width="180" height="20" as="geometry" />
        </mxCell>
        <mxCell id="dk1dqKSrUgwjKV17HSef-171" value="" style="rounded=0;whiteSpace=wrap;html=1;fontSize=14;fillColor=#f8cecc;strokeColor=#b85450;" vertex="1" parent="1">
          <mxGeometry x="730" y="270" width="180" height="20" as="geometry" />
        </mxCell>
        <mxCell id="dk1dqKSrUgwjKV17HSef-172" value="" style="rounded=0;whiteSpace=wrap;html=1;fontSize=14;fillColor=#ffe6cc;strokeColor=#d79b00;" vertex="1" parent="1">
          <mxGeometry x="730" y="250" width="180" height="20" as="geometry" />
        </mxCell>
        <mxCell id="dk1dqKSrUgwjKV17HSef-173" value="" style="rounded=0;whiteSpace=wrap;html=1;fontSize=14;fillColor=#fff2cc;strokeColor=#d6b656;" vertex="1" parent="1">
          <mxGeometry x="730" y="230" width="180" height="20" as="geometry" />
        </mxCell>
        <mxCell id="dk1dqKSrUgwjKV17HSef-174" value="" style="rounded=0;whiteSpace=wrap;html=1;fontSize=14;fillColor=#dae8fc;strokeColor=#6c8ebf;" vertex="1" parent="1">
          <mxGeometry x="730" y="210" width="180" height="20" as="geometry" />
        </mxCell>
        <mxCell id="dk1dqKSrUgwjKV17HSef-175" value="" style="rounded=0;whiteSpace=wrap;html=1;fontSize=14;fillColor=#e1d5e7;strokeColor=#9673a6;" vertex="1" parent="1">
          <mxGeometry x="730" y="290" width="180" height="20" as="geometry" />
        </mxCell>
        <mxCell id="dk1dqKSrUgwjKV17HSef-176" value="" style="endArrow=none;html=1;rounded=0;fontSize=14;elbow=vertical;jumpStyle=none;fillColor=#dae8fc;strokeColor=#6c8ebf;" edge="1" parent="1">
          <mxGeometry width="50" height="50" relative="1" as="geometry">
            <mxPoint x="730" y="219.5" as="sourcePoint" />
            <mxPoint x="910" y="219.5" as="targetPoint" />
            <Array as="points">
              <mxPoint x="774" y="214" />
              <mxPoint x="800" y="220" />
              <mxPoint x="840" y="214" />
              <mxPoint x="870" y="220" />
              <mxPoint x="890" y="214" />
            </Array>
          </mxGeometry>
        </mxCell>
        <mxCell id="dk1dqKSrUgwjKV17HSef-177" value="" style="endArrow=none;html=1;rounded=0;fontSize=14;elbow=vertical;jumpStyle=none;fillColor=#fff2cc;strokeColor=#d6b656;" edge="1" parent="1">
          <mxGeometry width="50" height="50" relative="1" as="geometry">
            <mxPoint x="730" y="239.5" as="sourcePoint" />
            <mxPoint x="910" y="239.5" as="targetPoint" />
            <Array as="points">
              <mxPoint x="760" y="240" />
              <mxPoint x="774" y="234" />
              <mxPoint x="800" y="240" />
              <mxPoint x="840" y="234" />
              <mxPoint x="850" y="240" />
              <mxPoint x="870" y="240" />
              <mxPoint x="890" y="234" />
            </Array>
          </mxGeometry>
        </mxCell>
        <mxCell id="dk1dqKSrUgwjKV17HSef-178" value="" style="endArrow=none;html=1;rounded=0;fontSize=14;elbow=vertical;jumpStyle=none;fillColor=#e1d5e7;strokeColor=#9673a6;" edge="1" parent="1">
          <mxGeometry width="50" height="50" relative="1" as="geometry">
            <mxPoint x="730" y="297" as="sourcePoint" />
            <mxPoint x="910" y="302.5" as="targetPoint" />
            <Array as="points">
              <mxPoint x="760" y="303" />
              <mxPoint x="774" y="297" />
              <mxPoint x="800" y="303" />
              <mxPoint x="810" y="297" />
              <mxPoint x="830" y="303" />
              <mxPoint x="840" y="297" />
              <mxPoint x="850" y="303" />
              <mxPoint x="870" y="303" />
              <mxPoint x="890" y="297" />
            </Array>
          </mxGeometry>
        </mxCell>
        <mxCell id="dk1dqKSrUgwjKV17HSef-179" value="" style="endArrow=none;html=1;rounded=0;fontSize=14;elbow=vertical;jumpStyle=none;fillColor=#d5e8d4;strokeColor=#82b366;" edge="1" parent="1">
          <mxGeometry width="50" height="50" relative="1" as="geometry">
            <mxPoint x="730" y="322.5" as="sourcePoint" />
            <mxPoint x="910" y="322.5" as="targetPoint" />
            <Array as="points">
              <mxPoint x="760" y="323" />
              <mxPoint x="774" y="317" />
              <mxPoint x="800" y="323" />
              <mxPoint x="840" y="317" />
              <mxPoint x="850" y="323" />
              <mxPoint x="870" y="323" />
              <mxPoint x="890" y="317" />
            </Array>
          </mxGeometry>
        </mxCell>
        <mxCell id="dk1dqKSrUgwjKV17HSef-180" value="" style="endArrow=none;html=1;rounded=0;fontSize=14;elbow=vertical;jumpStyle=none;fillColor=#ffe6cc;strokeColor=#d79b00;" edge="1" parent="1">
          <mxGeometry width="50" height="50" relative="1" as="geometry">
            <mxPoint x="730" y="257" as="sourcePoint" />
            <mxPoint x="910" y="262.5" as="targetPoint" />
            <Array as="points">
              <mxPoint x="760" y="263" />
              <mxPoint x="774" y="257" />
              <mxPoint x="800" y="263" />
              <mxPoint x="810" y="257" />
              <mxPoint x="830" y="263" />
              <mxPoint x="840" y="257" />
              <mxPoint x="850" y="263" />
              <mxPoint x="870" y="263" />
              <mxPoint x="890" y="257" />
            </Array>
          </mxGeometry>
        </mxCell>
        <mxCell id="dk1dqKSrUgwjKV17HSef-181" value="" style="endArrow=none;html=1;rounded=0;fontSize=14;elbow=vertical;jumpStyle=none;fillColor=#f8cecc;strokeColor=#b85450;" edge="1" parent="1">
          <mxGeometry width="50" height="50" relative="1" as="geometry">
            <mxPoint x="730" y="282.5" as="sourcePoint" />
            <mxPoint x="910" y="282.5" as="targetPoint" />
            <Array as="points">
              <mxPoint x="774" y="277" />
              <mxPoint x="800" y="283" />
              <mxPoint x="840" y="277" />
              <mxPoint x="870" y="283" />
              <mxPoint x="890" y="277" />
            </Array>
          </mxGeometry>
        </mxCell>
        <mxCell id="dk1dqKSrUgwjKV17HSef-182" value="" style="rounded=0;whiteSpace=wrap;html=1;fontSize=14;fillColor=#d5e8d4;strokeColor=#82b366;" vertex="1" parent="1">
          <mxGeometry x="740" y="320" width="180" height="20" as="geometry" />
        </mxCell>
        <mxCell id="dk1dqKSrUgwjKV17HSef-183" value="" style="rounded=0;whiteSpace=wrap;html=1;fontSize=14;fillColor=#f8cecc;strokeColor=#b85450;" vertex="1" parent="1">
          <mxGeometry x="740" y="280" width="180" height="20" as="geometry" />
        </mxCell>
        <mxCell id="dk1dqKSrUgwjKV17HSef-184" value="" style="rounded=0;whiteSpace=wrap;html=1;fontSize=14;fillColor=#ffe6cc;strokeColor=#d79b00;" vertex="1" parent="1">
          <mxGeometry x="740" y="260" width="180" height="20" as="geometry" />
        </mxCell>
        <mxCell id="dk1dqKSrUgwjKV17HSef-185" value="" style="rounded=0;whiteSpace=wrap;html=1;fontSize=14;fillColor=#fff2cc;strokeColor=#d6b656;" vertex="1" parent="1">
          <mxGeometry x="740" y="240" width="180" height="20" as="geometry" />
        </mxCell>
        <mxCell id="dk1dqKSrUgwjKV17HSef-186" value="" style="rounded=0;whiteSpace=wrap;html=1;fontSize=14;fillColor=#dae8fc;strokeColor=#6c8ebf;" vertex="1" parent="1">
          <mxGeometry x="740" y="220" width="180" height="20" as="geometry" />
        </mxCell>
        <mxCell id="dk1dqKSrUgwjKV17HSef-187" value="" style="rounded=0;whiteSpace=wrap;html=1;fontSize=14;fillColor=#e1d5e7;strokeColor=#9673a6;" vertex="1" parent="1">
          <mxGeometry x="740" y="300" width="180" height="20" as="geometry" />
        </mxCell>
        <mxCell id="dk1dqKSrUgwjKV17HSef-188" value="" style="endArrow=none;html=1;rounded=0;fontSize=14;elbow=vertical;jumpStyle=none;fillColor=#dae8fc;strokeColor=#6c8ebf;" edge="1" parent="1">
          <mxGeometry width="50" height="50" relative="1" as="geometry">
            <mxPoint x="740" y="229.5" as="sourcePoint" />
            <mxPoint x="920" y="229.5" as="targetPoint" />
            <Array as="points">
              <mxPoint x="784" y="224" />
              <mxPoint x="810" y="230" />
              <mxPoint x="850" y="224" />
              <mxPoint x="880" y="230" />
              <mxPoint x="900" y="224" />
            </Array>
          </mxGeometry>
        </mxCell>
        <mxCell id="dk1dqKSrUgwjKV17HSef-189" value="" style="endArrow=none;html=1;rounded=0;fontSize=14;elbow=vertical;jumpStyle=none;fillColor=#fff2cc;strokeColor=#d6b656;" edge="1" parent="1">
          <mxGeometry width="50" height="50" relative="1" as="geometry">
            <mxPoint x="740" y="249.5" as="sourcePoint" />
            <mxPoint x="920" y="249.5" as="targetPoint" />
            <Array as="points">
              <mxPoint x="770" y="250" />
              <mxPoint x="784" y="244" />
              <mxPoint x="810" y="250" />
              <mxPoint x="850" y="244" />
              <mxPoint x="860" y="250" />
              <mxPoint x="880" y="250" />
              <mxPoint x="900" y="244" />
            </Array>
          </mxGeometry>
        </mxCell>
        <mxCell id="dk1dqKSrUgwjKV17HSef-190" value="" style="endArrow=none;html=1;rounded=0;fontSize=14;elbow=vertical;jumpStyle=none;fillColor=#e1d5e7;strokeColor=#9673a6;" edge="1" parent="1">
          <mxGeometry width="50" height="50" relative="1" as="geometry">
            <mxPoint x="740" y="307" as="sourcePoint" />
            <mxPoint x="920" y="312.5" as="targetPoint" />
            <Array as="points">
              <mxPoint x="770" y="313" />
              <mxPoint x="784" y="307" />
              <mxPoint x="810" y="313" />
              <mxPoint x="820" y="307" />
              <mxPoint x="840" y="313" />
              <mxPoint x="850" y="307" />
              <mxPoint x="860" y="313" />
              <mxPoint x="880" y="313" />
              <mxPoint x="900" y="307" />
            </Array>
          </mxGeometry>
        </mxCell>
        <mxCell id="dk1dqKSrUgwjKV17HSef-191" value="" style="endArrow=none;html=1;rounded=0;fontSize=14;elbow=vertical;jumpStyle=none;fillColor=#d5e8d4;strokeColor=#82b366;" edge="1" parent="1">
          <mxGeometry width="50" height="50" relative="1" as="geometry">
            <mxPoint x="740" y="332.5" as="sourcePoint" />
            <mxPoint x="920" y="332.5" as="targetPoint" />
            <Array as="points">
              <mxPoint x="770" y="333" />
              <mxPoint x="784" y="327" />
              <mxPoint x="810" y="333" />
              <mxPoint x="850" y="327" />
              <mxPoint x="860" y="333" />
              <mxPoint x="880" y="333" />
              <mxPoint x="900" y="327" />
            </Array>
          </mxGeometry>
        </mxCell>
        <mxCell id="dk1dqKSrUgwjKV17HSef-192" value="" style="endArrow=none;html=1;rounded=0;fontSize=14;elbow=vertical;jumpStyle=none;fillColor=#ffe6cc;strokeColor=#d79b00;" edge="1" parent="1">
          <mxGeometry width="50" height="50" relative="1" as="geometry">
            <mxPoint x="740" y="267" as="sourcePoint" />
            <mxPoint x="920" y="272.5" as="targetPoint" />
            <Array as="points">
              <mxPoint x="770" y="273" />
              <mxPoint x="784" y="267" />
              <mxPoint x="810" y="273" />
              <mxPoint x="820" y="267" />
              <mxPoint x="840" y="273" />
              <mxPoint x="850" y="267" />
              <mxPoint x="860" y="273" />
              <mxPoint x="880" y="273" />
              <mxPoint x="900" y="267" />
            </Array>
          </mxGeometry>
        </mxCell>
        <mxCell id="dk1dqKSrUgwjKV17HSef-193" value="" style="endArrow=none;html=1;rounded=0;fontSize=14;elbow=vertical;jumpStyle=none;fillColor=#f8cecc;strokeColor=#b85450;" edge="1" parent="1">
          <mxGeometry width="50" height="50" relative="1" as="geometry">
            <mxPoint x="740" y="292.5" as="sourcePoint" />
            <mxPoint x="920" y="292.5" as="targetPoint" />
            <Array as="points">
              <mxPoint x="784" y="287" />
              <mxPoint x="810" y="293" />
              <mxPoint x="850" y="287" />
              <mxPoint x="880" y="293" />
              <mxPoint x="900" y="287" />
            </Array>
          </mxGeometry>
        </mxCell>
        <mxCell id="dk1dqKSrUgwjKV17HSef-194" value="" style="rounded=0;whiteSpace=wrap;html=1;fontSize=14;fillColor=#d5e8d4;strokeColor=#82b366;" vertex="1" parent="1">
          <mxGeometry x="750" y="330" width="180" height="20" as="geometry" />
        </mxCell>
        <mxCell id="dk1dqKSrUgwjKV17HSef-195" value="" style="rounded=0;whiteSpace=wrap;html=1;fontSize=14;fillColor=#f8cecc;strokeColor=#b85450;" vertex="1" parent="1">
          <mxGeometry x="750" y="290" width="180" height="20" as="geometry" />
        </mxCell>
        <mxCell id="dk1dqKSrUgwjKV17HSef-196" value="" style="rounded=0;whiteSpace=wrap;html=1;fontSize=14;fillColor=#ffe6cc;strokeColor=#d79b00;" vertex="1" parent="1">
          <mxGeometry x="750" y="270" width="180" height="20" as="geometry" />
        </mxCell>
        <mxCell id="dk1dqKSrUgwjKV17HSef-197" value="" style="rounded=0;whiteSpace=wrap;html=1;fontSize=14;fillColor=#fff2cc;strokeColor=#d6b656;" vertex="1" parent="1">
          <mxGeometry x="750" y="250" width="180" height="20" as="geometry" />
        </mxCell>
        <mxCell id="dk1dqKSrUgwjKV17HSef-198" value="" style="rounded=0;whiteSpace=wrap;html=1;fontSize=14;fillColor=#dae8fc;strokeColor=#6c8ebf;" vertex="1" parent="1">
          <mxGeometry x="750" y="230" width="180" height="20" as="geometry" />
        </mxCell>
        <mxCell id="dk1dqKSrUgwjKV17HSef-199" value="" style="rounded=0;whiteSpace=wrap;html=1;fontSize=14;fillColor=#e1d5e7;strokeColor=#9673a6;" vertex="1" parent="1">
          <mxGeometry x="750" y="310" width="180" height="20" as="geometry" />
        </mxCell>
        <mxCell id="dk1dqKSrUgwjKV17HSef-200" value="" style="endArrow=none;html=1;rounded=0;fontSize=14;elbow=vertical;jumpStyle=none;fillColor=#dae8fc;strokeColor=#6c8ebf;" edge="1" parent="1">
          <mxGeometry width="50" height="50" relative="1" as="geometry">
            <mxPoint x="750" y="239.5" as="sourcePoint" />
            <mxPoint x="930" y="239.5" as="targetPoint" />
            <Array as="points">
              <mxPoint x="794" y="234" />
              <mxPoint x="820" y="240" />
              <mxPoint x="860" y="234" />
              <mxPoint x="890" y="240" />
              <mxPoint x="910" y="234" />
            </Array>
          </mxGeometry>
        </mxCell>
        <mxCell id="dk1dqKSrUgwjKV17HSef-201" value="" style="endArrow=none;html=1;rounded=0;fontSize=14;elbow=vertical;jumpStyle=none;fillColor=#fff2cc;strokeColor=#d6b656;" edge="1" parent="1">
          <mxGeometry width="50" height="50" relative="1" as="geometry">
            <mxPoint x="750" y="259.5" as="sourcePoint" />
            <mxPoint x="930" y="259.5" as="targetPoint" />
            <Array as="points">
              <mxPoint x="780" y="260" />
              <mxPoint x="794" y="254" />
              <mxPoint x="820" y="260" />
              <mxPoint x="860" y="254" />
              <mxPoint x="870" y="260" />
              <mxPoint x="890" y="260" />
              <mxPoint x="910" y="254" />
            </Array>
          </mxGeometry>
        </mxCell>
        <mxCell id="dk1dqKSrUgwjKV17HSef-202" value="" style="endArrow=none;html=1;rounded=0;fontSize=14;elbow=vertical;jumpStyle=none;fillColor=#e1d5e7;strokeColor=#9673a6;" edge="1" parent="1">
          <mxGeometry width="50" height="50" relative="1" as="geometry">
            <mxPoint x="750" y="317" as="sourcePoint" />
            <mxPoint x="930" y="322.5" as="targetPoint" />
            <Array as="points">
              <mxPoint x="780" y="323" />
              <mxPoint x="794" y="317" />
              <mxPoint x="820" y="323" />
              <mxPoint x="830" y="317" />
              <mxPoint x="850" y="323" />
              <mxPoint x="860" y="317" />
              <mxPoint x="870" y="323" />
              <mxPoint x="890" y="323" />
              <mxPoint x="910" y="317" />
            </Array>
          </mxGeometry>
        </mxCell>
        <mxCell id="dk1dqKSrUgwjKV17HSef-203" value="" style="endArrow=none;html=1;rounded=0;fontSize=14;elbow=vertical;jumpStyle=none;fillColor=#d5e8d4;strokeColor=#82b366;" edge="1" parent="1">
          <mxGeometry width="50" height="50" relative="1" as="geometry">
            <mxPoint x="750" y="342.5" as="sourcePoint" />
            <mxPoint x="930" y="342.5" as="targetPoint" />
            <Array as="points">
              <mxPoint x="780" y="343" />
              <mxPoint x="794" y="337" />
              <mxPoint x="820" y="343" />
              <mxPoint x="860" y="337" />
              <mxPoint x="870" y="343" />
              <mxPoint x="890" y="343" />
              <mxPoint x="910" y="337" />
            </Array>
          </mxGeometry>
        </mxCell>
        <mxCell id="dk1dqKSrUgwjKV17HSef-204" value="" style="endArrow=none;html=1;rounded=0;fontSize=14;elbow=vertical;jumpStyle=none;fillColor=#ffe6cc;strokeColor=#d79b00;" edge="1" parent="1">
          <mxGeometry width="50" height="50" relative="1" as="geometry">
            <mxPoint x="750" y="277" as="sourcePoint" />
            <mxPoint x="930" y="282.5" as="targetPoint" />
            <Array as="points">
              <mxPoint x="780" y="283" />
              <mxPoint x="794" y="277" />
              <mxPoint x="820" y="283" />
              <mxPoint x="830" y="277" />
              <mxPoint x="850" y="283" />
              <mxPoint x="860" y="277" />
              <mxPoint x="870" y="283" />
              <mxPoint x="890" y="283" />
              <mxPoint x="910" y="277" />
            </Array>
          </mxGeometry>
        </mxCell>
        <mxCell id="dk1dqKSrUgwjKV17HSef-205" value="" style="endArrow=none;html=1;rounded=0;fontSize=14;elbow=vertical;jumpStyle=none;fillColor=#f8cecc;strokeColor=#b85450;" edge="1" parent="1">
          <mxGeometry width="50" height="50" relative="1" as="geometry">
            <mxPoint x="750" y="302.5" as="sourcePoint" />
            <mxPoint x="930" y="302.5" as="targetPoint" />
            <Array as="points">
              <mxPoint x="794" y="297" />
              <mxPoint x="820" y="303" />
              <mxPoint x="860" y="297" />
              <mxPoint x="890" y="303" />
              <mxPoint x="910" y="297" />
            </Array>
          </mxGeometry>
        </mxCell>
        <mxCell id="dk1dqKSrUgwjKV17HSef-206" value="" style="rounded=0;whiteSpace=wrap;html=1;fontSize=14;fillColor=#d5e8d4;strokeColor=#82b366;" vertex="1" parent="1">
          <mxGeometry x="760" y="340" width="180" height="20" as="geometry" />
        </mxCell>
        <mxCell id="dk1dqKSrUgwjKV17HSef-207" value="" style="rounded=0;whiteSpace=wrap;html=1;fontSize=14;fillColor=#f8cecc;strokeColor=#b85450;" vertex="1" parent="1">
          <mxGeometry x="760" y="300" width="180" height="20" as="geometry" />
        </mxCell>
        <mxCell id="dk1dqKSrUgwjKV17HSef-208" value="" style="rounded=0;whiteSpace=wrap;html=1;fontSize=14;fillColor=#ffe6cc;strokeColor=#d79b00;" vertex="1" parent="1">
          <mxGeometry x="760" y="280" width="180" height="20" as="geometry" />
        </mxCell>
        <mxCell id="dk1dqKSrUgwjKV17HSef-209" value="" style="rounded=0;whiteSpace=wrap;html=1;fontSize=14;fillColor=#fff2cc;strokeColor=#d6b656;" vertex="1" parent="1">
          <mxGeometry x="760" y="260" width="180" height="20" as="geometry" />
        </mxCell>
        <mxCell id="dk1dqKSrUgwjKV17HSef-210" value="" style="rounded=0;whiteSpace=wrap;html=1;fontSize=14;fillColor=#dae8fc;strokeColor=#6c8ebf;" vertex="1" parent="1">
          <mxGeometry x="760" y="240" width="180" height="20" as="geometry" />
        </mxCell>
        <mxCell id="dk1dqKSrUgwjKV17HSef-211" value="" style="rounded=0;whiteSpace=wrap;html=1;fontSize=14;fillColor=#e1d5e7;strokeColor=#9673a6;" vertex="1" parent="1">
          <mxGeometry x="760" y="320" width="180" height="20" as="geometry" />
        </mxCell>
        <mxCell id="dk1dqKSrUgwjKV17HSef-212" value="" style="endArrow=none;html=1;rounded=0;fontSize=14;elbow=vertical;jumpStyle=none;fillColor=#dae8fc;strokeColor=#6c8ebf;" edge="1" parent="1">
          <mxGeometry width="50" height="50" relative="1" as="geometry">
            <mxPoint x="760" y="249.5" as="sourcePoint" />
            <mxPoint x="940" y="249.5" as="targetPoint" />
            <Array as="points">
              <mxPoint x="804" y="244" />
              <mxPoint x="830" y="250" />
              <mxPoint x="870" y="244" />
              <mxPoint x="900" y="250" />
              <mxPoint x="920" y="244" />
            </Array>
          </mxGeometry>
        </mxCell>
        <mxCell id="dk1dqKSrUgwjKV17HSef-213" value="" style="endArrow=none;html=1;rounded=0;fontSize=14;elbow=vertical;jumpStyle=none;fillColor=#fff2cc;strokeColor=#d6b656;" edge="1" parent="1">
          <mxGeometry width="50" height="50" relative="1" as="geometry">
            <mxPoint x="760" y="269.5" as="sourcePoint" />
            <mxPoint x="940" y="269.5" as="targetPoint" />
            <Array as="points">
              <mxPoint x="790" y="270" />
              <mxPoint x="804" y="264" />
              <mxPoint x="830" y="270" />
              <mxPoint x="870" y="264" />
              <mxPoint x="880" y="270" />
              <mxPoint x="900" y="270" />
              <mxPoint x="920" y="264" />
            </Array>
          </mxGeometry>
        </mxCell>
        <mxCell id="dk1dqKSrUgwjKV17HSef-214" value="" style="endArrow=none;html=1;rounded=0;fontSize=14;elbow=vertical;jumpStyle=none;fillColor=#e1d5e7;strokeColor=#9673a6;" edge="1" parent="1">
          <mxGeometry width="50" height="50" relative="1" as="geometry">
            <mxPoint x="760" y="327" as="sourcePoint" />
            <mxPoint x="940" y="332.5" as="targetPoint" />
            <Array as="points">
              <mxPoint x="790" y="333" />
              <mxPoint x="804" y="327" />
              <mxPoint x="830" y="333" />
              <mxPoint x="840" y="327" />
              <mxPoint x="860" y="333" />
              <mxPoint x="870" y="327" />
              <mxPoint x="880" y="333" />
              <mxPoint x="900" y="333" />
              <mxPoint x="920" y="327" />
            </Array>
          </mxGeometry>
        </mxCell>
        <mxCell id="dk1dqKSrUgwjKV17HSef-215" value="" style="endArrow=none;html=1;rounded=0;fontSize=14;elbow=vertical;jumpStyle=none;fillColor=#d5e8d4;strokeColor=#82b366;" edge="1" parent="1">
          <mxGeometry width="50" height="50" relative="1" as="geometry">
            <mxPoint x="760" y="352.5" as="sourcePoint" />
            <mxPoint x="940" y="352.5" as="targetPoint" />
            <Array as="points">
              <mxPoint x="790" y="353" />
              <mxPoint x="804" y="347" />
              <mxPoint x="830" y="353" />
              <mxPoint x="870" y="347" />
              <mxPoint x="880" y="353" />
              <mxPoint x="900" y="353" />
              <mxPoint x="920" y="347" />
            </Array>
          </mxGeometry>
        </mxCell>
        <mxCell id="dk1dqKSrUgwjKV17HSef-216" value="" style="endArrow=none;html=1;rounded=0;fontSize=14;elbow=vertical;jumpStyle=none;fillColor=#ffe6cc;strokeColor=#d79b00;" edge="1" parent="1">
          <mxGeometry width="50" height="50" relative="1" as="geometry">
            <mxPoint x="760" y="287" as="sourcePoint" />
            <mxPoint x="940" y="292.5" as="targetPoint" />
            <Array as="points">
              <mxPoint x="790" y="293" />
              <mxPoint x="804" y="287" />
              <mxPoint x="830" y="293" />
              <mxPoint x="840" y="287" />
              <mxPoint x="860" y="293" />
              <mxPoint x="870" y="287" />
              <mxPoint x="880" y="293" />
              <mxPoint x="900" y="293" />
              <mxPoint x="920" y="287" />
            </Array>
          </mxGeometry>
        </mxCell>
        <mxCell id="dk1dqKSrUgwjKV17HSef-217" value="" style="endArrow=none;html=1;rounded=0;fontSize=14;elbow=vertical;jumpStyle=none;fillColor=#f8cecc;strokeColor=#b85450;" edge="1" parent="1">
          <mxGeometry width="50" height="50" relative="1" as="geometry">
            <mxPoint x="760" y="312.5" as="sourcePoint" />
            <mxPoint x="940" y="312.5" as="targetPoint" />
            <Array as="points">
              <mxPoint x="804" y="307" />
              <mxPoint x="830" y="313" />
              <mxPoint x="870" y="307" />
              <mxPoint x="900" y="313" />
              <mxPoint x="920" y="307" />
            </Array>
          </mxGeometry>
        </mxCell>
        <mxCell id="dk1dqKSrUgwjKV17HSef-218" value="" style="rounded=0;whiteSpace=wrap;html=1;fontSize=14;fillColor=#d5e8d4;strokeColor=#82b366;" vertex="1" parent="1">
          <mxGeometry x="770" y="350" width="180" height="20" as="geometry" />
        </mxCell>
        <mxCell id="dk1dqKSrUgwjKV17HSef-219" value="" style="rounded=0;whiteSpace=wrap;html=1;fontSize=14;fillColor=#f8cecc;strokeColor=#b85450;" vertex="1" parent="1">
          <mxGeometry x="770" y="310" width="180" height="20" as="geometry" />
        </mxCell>
        <mxCell id="dk1dqKSrUgwjKV17HSef-220" value="" style="rounded=0;whiteSpace=wrap;html=1;fontSize=14;fillColor=#ffe6cc;strokeColor=#d79b00;" vertex="1" parent="1">
          <mxGeometry x="770" y="290" width="180" height="20" as="geometry" />
        </mxCell>
        <mxCell id="dk1dqKSrUgwjKV17HSef-221" value="" style="rounded=0;whiteSpace=wrap;html=1;fontSize=14;fillColor=#fff2cc;strokeColor=#d6b656;" vertex="1" parent="1">
          <mxGeometry x="770" y="270" width="180" height="20" as="geometry" />
        </mxCell>
        <mxCell id="dk1dqKSrUgwjKV17HSef-222" value="" style="rounded=0;whiteSpace=wrap;html=1;fontSize=14;fillColor=#dae8fc;strokeColor=#6c8ebf;" vertex="1" parent="1">
          <mxGeometry x="770" y="250" width="180" height="20" as="geometry" />
        </mxCell>
        <mxCell id="dk1dqKSrUgwjKV17HSef-223" value="" style="rounded=0;whiteSpace=wrap;html=1;fontSize=14;fillColor=#e1d5e7;strokeColor=#9673a6;" vertex="1" parent="1">
          <mxGeometry x="770" y="330" width="180" height="20" as="geometry" />
        </mxCell>
        <mxCell id="dk1dqKSrUgwjKV17HSef-224" value="" style="endArrow=none;html=1;rounded=0;fontSize=14;elbow=vertical;jumpStyle=none;fillColor=#dae8fc;strokeColor=#6c8ebf;" edge="1" parent="1">
          <mxGeometry width="50" height="50" relative="1" as="geometry">
            <mxPoint x="770" y="259.5" as="sourcePoint" />
            <mxPoint x="950" y="259.5" as="targetPoint" />
            <Array as="points">
              <mxPoint x="814" y="254" />
              <mxPoint x="840" y="260" />
              <mxPoint x="880" y="254" />
              <mxPoint x="910" y="260" />
              <mxPoint x="930" y="254" />
            </Array>
          </mxGeometry>
        </mxCell>
        <mxCell id="dk1dqKSrUgwjKV17HSef-225" value="" style="endArrow=none;html=1;rounded=0;fontSize=14;elbow=vertical;jumpStyle=none;fillColor=#fff2cc;strokeColor=#d6b656;" edge="1" parent="1">
          <mxGeometry width="50" height="50" relative="1" as="geometry">
            <mxPoint x="770" y="279.5" as="sourcePoint" />
            <mxPoint x="950" y="279.5" as="targetPoint" />
            <Array as="points">
              <mxPoint x="800" y="280" />
              <mxPoint x="814" y="274" />
              <mxPoint x="840" y="280" />
              <mxPoint x="880" y="274" />
              <mxPoint x="890" y="280" />
              <mxPoint x="910" y="280" />
              <mxPoint x="930" y="274" />
            </Array>
          </mxGeometry>
        </mxCell>
        <mxCell id="dk1dqKSrUgwjKV17HSef-226" value="" style="endArrow=none;html=1;rounded=0;fontSize=14;elbow=vertical;jumpStyle=none;fillColor=#e1d5e7;strokeColor=#9673a6;" edge="1" parent="1">
          <mxGeometry width="50" height="50" relative="1" as="geometry">
            <mxPoint x="770" y="337" as="sourcePoint" />
            <mxPoint x="950" y="342.5" as="targetPoint" />
            <Array as="points">
              <mxPoint x="800" y="343" />
              <mxPoint x="814" y="337" />
              <mxPoint x="840" y="343" />
              <mxPoint x="850" y="337" />
              <mxPoint x="870" y="343" />
              <mxPoint x="880" y="337" />
              <mxPoint x="890" y="343" />
              <mxPoint x="910" y="343" />
              <mxPoint x="930" y="337" />
            </Array>
          </mxGeometry>
        </mxCell>
        <mxCell id="dk1dqKSrUgwjKV17HSef-227" value="" style="endArrow=none;html=1;rounded=0;fontSize=14;elbow=vertical;jumpStyle=none;fillColor=#d5e8d4;strokeColor=#82b366;" edge="1" parent="1">
          <mxGeometry width="50" height="50" relative="1" as="geometry">
            <mxPoint x="770" y="362.5" as="sourcePoint" />
            <mxPoint x="950" y="362.5" as="targetPoint" />
            <Array as="points">
              <mxPoint x="800" y="363" />
              <mxPoint x="814" y="357" />
              <mxPoint x="840" y="363" />
              <mxPoint x="880" y="357" />
              <mxPoint x="890" y="363" />
              <mxPoint x="910" y="363" />
              <mxPoint x="930" y="357" />
            </Array>
          </mxGeometry>
        </mxCell>
        <mxCell id="dk1dqKSrUgwjKV17HSef-228" value="" style="endArrow=none;html=1;rounded=0;fontSize=14;elbow=vertical;jumpStyle=none;fillColor=#ffe6cc;strokeColor=#d79b00;" edge="1" parent="1">
          <mxGeometry width="50" height="50" relative="1" as="geometry">
            <mxPoint x="770" y="297" as="sourcePoint" />
            <mxPoint x="950" y="302.5" as="targetPoint" />
            <Array as="points">
              <mxPoint x="800" y="303" />
              <mxPoint x="814" y="297" />
              <mxPoint x="840" y="303" />
              <mxPoint x="850" y="297" />
              <mxPoint x="870" y="303" />
              <mxPoint x="880" y="297" />
              <mxPoint x="890" y="303" />
              <mxPoint x="910" y="303" />
              <mxPoint x="930" y="297" />
            </Array>
          </mxGeometry>
        </mxCell>
        <mxCell id="dk1dqKSrUgwjKV17HSef-229" value="" style="endArrow=none;html=1;rounded=0;fontSize=14;elbow=vertical;jumpStyle=none;fillColor=#f8cecc;strokeColor=#b85450;" edge="1" parent="1">
          <mxGeometry width="50" height="50" relative="1" as="geometry">
            <mxPoint x="770" y="322.5" as="sourcePoint" />
            <mxPoint x="950" y="322.5" as="targetPoint" />
            <Array as="points">
              <mxPoint x="814" y="317" />
              <mxPoint x="840" y="323" />
              <mxPoint x="880" y="317" />
              <mxPoint x="910" y="323" />
              <mxPoint x="930" y="317" />
            </Array>
          </mxGeometry>
        </mxCell>
        <mxCell id="dk1dqKSrUgwjKV17HSef-230" value="" style="rounded=0;whiteSpace=wrap;html=1;fontSize=14;fillColor=#d5e8d4;strokeColor=#82b366;" vertex="1" parent="1">
          <mxGeometry x="780" y="360" width="180" height="20" as="geometry" />
        </mxCell>
        <mxCell id="dk1dqKSrUgwjKV17HSef-231" value="" style="rounded=0;whiteSpace=wrap;html=1;fontSize=14;fillColor=#f8cecc;strokeColor=#b85450;" vertex="1" parent="1">
          <mxGeometry x="780" y="320" width="180" height="20" as="geometry" />
        </mxCell>
        <mxCell id="dk1dqKSrUgwjKV17HSef-232" value="" style="rounded=0;whiteSpace=wrap;html=1;fontSize=14;fillColor=#ffe6cc;strokeColor=#d79b00;" vertex="1" parent="1">
          <mxGeometry x="780" y="300" width="180" height="20" as="geometry" />
        </mxCell>
        <mxCell id="dk1dqKSrUgwjKV17HSef-233" value="" style="rounded=0;whiteSpace=wrap;html=1;fontSize=14;fillColor=#fff2cc;strokeColor=#d6b656;" vertex="1" parent="1">
          <mxGeometry x="780" y="280" width="180" height="20" as="geometry" />
        </mxCell>
        <mxCell id="dk1dqKSrUgwjKV17HSef-234" value="" style="rounded=0;whiteSpace=wrap;html=1;fontSize=14;fillColor=#dae8fc;strokeColor=#6c8ebf;" vertex="1" parent="1">
          <mxGeometry x="780" y="260" width="180" height="20" as="geometry" />
        </mxCell>
        <mxCell id="dk1dqKSrUgwjKV17HSef-235" value="" style="rounded=0;whiteSpace=wrap;html=1;fontSize=14;fillColor=#e1d5e7;strokeColor=#9673a6;" vertex="1" parent="1">
          <mxGeometry x="780" y="340" width="180" height="20" as="geometry" />
        </mxCell>
        <mxCell id="dk1dqKSrUgwjKV17HSef-236" value="" style="endArrow=none;html=1;rounded=0;fontSize=14;elbow=vertical;jumpStyle=none;fillColor=#dae8fc;strokeColor=#6c8ebf;" edge="1" parent="1">
          <mxGeometry width="50" height="50" relative="1" as="geometry">
            <mxPoint x="780" y="269.5" as="sourcePoint" />
            <mxPoint x="960" y="269.5" as="targetPoint" />
            <Array as="points">
              <mxPoint x="824" y="264" />
              <mxPoint x="850" y="270" />
              <mxPoint x="890" y="264" />
              <mxPoint x="920" y="270" />
              <mxPoint x="940" y="264" />
            </Array>
          </mxGeometry>
        </mxCell>
        <mxCell id="dk1dqKSrUgwjKV17HSef-237" value="" style="endArrow=none;html=1;rounded=0;fontSize=14;elbow=vertical;jumpStyle=none;fillColor=#fff2cc;strokeColor=#d6b656;" edge="1" parent="1">
          <mxGeometry width="50" height="50" relative="1" as="geometry">
            <mxPoint x="780" y="289.5" as="sourcePoint" />
            <mxPoint x="960" y="289.5" as="targetPoint" />
            <Array as="points">
              <mxPoint x="810" y="290" />
              <mxPoint x="824" y="284" />
              <mxPoint x="850" y="290" />
              <mxPoint x="890" y="284" />
              <mxPoint x="900" y="290" />
              <mxPoint x="920" y="290" />
              <mxPoint x="940" y="284" />
            </Array>
          </mxGeometry>
        </mxCell>
        <mxCell id="dk1dqKSrUgwjKV17HSef-238" value="" style="endArrow=none;html=1;rounded=0;fontSize=14;elbow=vertical;jumpStyle=none;fillColor=#e1d5e7;strokeColor=#9673a6;" edge="1" parent="1">
          <mxGeometry width="50" height="50" relative="1" as="geometry">
            <mxPoint x="780" y="347" as="sourcePoint" />
            <mxPoint x="960" y="352.5" as="targetPoint" />
            <Array as="points">
              <mxPoint x="810" y="353" />
              <mxPoint x="824" y="347" />
              <mxPoint x="850" y="353" />
              <mxPoint x="860" y="347" />
              <mxPoint x="880" y="353" />
              <mxPoint x="890" y="347" />
              <mxPoint x="900" y="353" />
              <mxPoint x="920" y="353" />
              <mxPoint x="940" y="347" />
            </Array>
          </mxGeometry>
        </mxCell>
        <mxCell id="dk1dqKSrUgwjKV17HSef-239" value="" style="endArrow=none;html=1;rounded=0;fontSize=14;elbow=vertical;jumpStyle=none;fillColor=#d5e8d4;strokeColor=#82b366;" edge="1" parent="1">
          <mxGeometry width="50" height="50" relative="1" as="geometry">
            <mxPoint x="780" y="372.5" as="sourcePoint" />
            <mxPoint x="960" y="372.5" as="targetPoint" />
            <Array as="points">
              <mxPoint x="810" y="373" />
              <mxPoint x="824" y="367" />
              <mxPoint x="850" y="373" />
              <mxPoint x="890" y="367" />
              <mxPoint x="900" y="373" />
              <mxPoint x="920" y="373" />
              <mxPoint x="940" y="367" />
            </Array>
          </mxGeometry>
        </mxCell>
        <mxCell id="dk1dqKSrUgwjKV17HSef-240" value="" style="endArrow=none;html=1;rounded=0;fontSize=14;elbow=vertical;jumpStyle=none;fillColor=#ffe6cc;strokeColor=#d79b00;" edge="1" parent="1">
          <mxGeometry width="50" height="50" relative="1" as="geometry">
            <mxPoint x="780" y="307" as="sourcePoint" />
            <mxPoint x="960" y="312.5" as="targetPoint" />
            <Array as="points">
              <mxPoint x="810" y="313" />
              <mxPoint x="824" y="307" />
              <mxPoint x="850" y="313" />
              <mxPoint x="860" y="307" />
              <mxPoint x="880" y="313" />
              <mxPoint x="890" y="307" />
              <mxPoint x="900" y="313" />
              <mxPoint x="920" y="313" />
              <mxPoint x="940" y="307" />
            </Array>
          </mxGeometry>
        </mxCell>
        <mxCell id="dk1dqKSrUgwjKV17HSef-241" value="" style="endArrow=none;html=1;rounded=0;fontSize=14;elbow=vertical;jumpStyle=none;fillColor=#f8cecc;strokeColor=#b85450;" edge="1" parent="1">
          <mxGeometry width="50" height="50" relative="1" as="geometry">
            <mxPoint x="780" y="332.5" as="sourcePoint" />
            <mxPoint x="960" y="332.5" as="targetPoint" />
            <Array as="points">
              <mxPoint x="824" y="327" />
              <mxPoint x="850" y="333" />
              <mxPoint x="890" y="327" />
              <mxPoint x="920" y="333" />
              <mxPoint x="940" y="327" />
            </Array>
          </mxGeometry>
        </mxCell>
        <mxCell id="dk1dqKSrUgwjKV17HSef-242" value="" style="rounded=0;whiteSpace=wrap;html=1;fontSize=14;fillColor=#d5e8d4;strokeColor=#82b366;" vertex="1" parent="1">
          <mxGeometry x="790" y="370" width="180" height="20" as="geometry" />
        </mxCell>
        <mxCell id="dk1dqKSrUgwjKV17HSef-243" value="" style="rounded=0;whiteSpace=wrap;html=1;fontSize=14;fillColor=#f8cecc;strokeColor=#b85450;" vertex="1" parent="1">
          <mxGeometry x="790" y="330" width="180" height="20" as="geometry" />
        </mxCell>
        <mxCell id="dk1dqKSrUgwjKV17HSef-244" value="" style="rounded=0;whiteSpace=wrap;html=1;fontSize=14;fillColor=#ffe6cc;strokeColor=#d79b00;" vertex="1" parent="1">
          <mxGeometry x="790" y="310" width="180" height="20" as="geometry" />
        </mxCell>
        <mxCell id="dk1dqKSrUgwjKV17HSef-245" value="" style="rounded=0;whiteSpace=wrap;html=1;fontSize=14;fillColor=#fff2cc;strokeColor=#d6b656;" vertex="1" parent="1">
          <mxGeometry x="790" y="290" width="180" height="20" as="geometry" />
        </mxCell>
        <mxCell id="dk1dqKSrUgwjKV17HSef-246" value="" style="rounded=0;whiteSpace=wrap;html=1;fontSize=14;fillColor=#dae8fc;strokeColor=#6c8ebf;" vertex="1" parent="1">
          <mxGeometry x="790" y="270" width="180" height="20" as="geometry" />
        </mxCell>
        <mxCell id="dk1dqKSrUgwjKV17HSef-247" value="" style="rounded=0;whiteSpace=wrap;html=1;fontSize=14;fillColor=#e1d5e7;strokeColor=#9673a6;" vertex="1" parent="1">
          <mxGeometry x="790" y="350" width="180" height="20" as="geometry" />
        </mxCell>
        <mxCell id="dk1dqKSrUgwjKV17HSef-248" value="" style="endArrow=none;html=1;rounded=0;fontSize=14;elbow=vertical;jumpStyle=none;fillColor=#dae8fc;strokeColor=#6c8ebf;" edge="1" parent="1">
          <mxGeometry width="50" height="50" relative="1" as="geometry">
            <mxPoint x="790" y="279.5" as="sourcePoint" />
            <mxPoint x="970" y="279.5" as="targetPoint" />
            <Array as="points">
              <mxPoint x="834" y="274" />
              <mxPoint x="860" y="280" />
              <mxPoint x="900" y="274" />
              <mxPoint x="930" y="280" />
              <mxPoint x="950" y="274" />
            </Array>
          </mxGeometry>
        </mxCell>
        <mxCell id="dk1dqKSrUgwjKV17HSef-249" value="" style="endArrow=none;html=1;rounded=0;fontSize=14;elbow=vertical;jumpStyle=none;fillColor=#fff2cc;strokeColor=#d6b656;" edge="1" parent="1">
          <mxGeometry width="50" height="50" relative="1" as="geometry">
            <mxPoint x="790" y="299.5" as="sourcePoint" />
            <mxPoint x="970" y="299.5" as="targetPoint" />
            <Array as="points">
              <mxPoint x="820" y="300" />
              <mxPoint x="834" y="294" />
              <mxPoint x="860" y="300" />
              <mxPoint x="900" y="294" />
              <mxPoint x="910" y="300" />
              <mxPoint x="930" y="300" />
              <mxPoint x="950" y="294" />
            </Array>
          </mxGeometry>
        </mxCell>
        <mxCell id="dk1dqKSrUgwjKV17HSef-250" value="" style="endArrow=none;html=1;rounded=0;fontSize=14;elbow=vertical;jumpStyle=none;fillColor=#e1d5e7;strokeColor=#9673a6;" edge="1" parent="1">
          <mxGeometry width="50" height="50" relative="1" as="geometry">
            <mxPoint x="790" y="357" as="sourcePoint" />
            <mxPoint x="970" y="362.5" as="targetPoint" />
            <Array as="points">
              <mxPoint x="820" y="363" />
              <mxPoint x="834" y="357" />
              <mxPoint x="860" y="363" />
              <mxPoint x="870" y="357" />
              <mxPoint x="890" y="363" />
              <mxPoint x="900" y="357" />
              <mxPoint x="910" y="363" />
              <mxPoint x="930" y="363" />
              <mxPoint x="950" y="357" />
            </Array>
          </mxGeometry>
        </mxCell>
        <mxCell id="dk1dqKSrUgwjKV17HSef-251" value="" style="endArrow=none;html=1;rounded=0;fontSize=14;elbow=vertical;jumpStyle=none;fillColor=#d5e8d4;strokeColor=#82b366;" edge="1" parent="1">
          <mxGeometry width="50" height="50" relative="1" as="geometry">
            <mxPoint x="790" y="382.5" as="sourcePoint" />
            <mxPoint x="970" y="382.5" as="targetPoint" />
            <Array as="points">
              <mxPoint x="820" y="383" />
              <mxPoint x="834" y="377" />
              <mxPoint x="860" y="383" />
              <mxPoint x="900" y="377" />
              <mxPoint x="910" y="383" />
              <mxPoint x="930" y="383" />
              <mxPoint x="950" y="377" />
            </Array>
          </mxGeometry>
        </mxCell>
        <mxCell id="dk1dqKSrUgwjKV17HSef-252" value="" style="endArrow=none;html=1;rounded=0;fontSize=14;elbow=vertical;jumpStyle=none;fillColor=#ffe6cc;strokeColor=#d79b00;" edge="1" parent="1">
          <mxGeometry width="50" height="50" relative="1" as="geometry">
            <mxPoint x="790" y="317" as="sourcePoint" />
            <mxPoint x="970" y="322.5" as="targetPoint" />
            <Array as="points">
              <mxPoint x="820" y="323" />
              <mxPoint x="834" y="317" />
              <mxPoint x="860" y="323" />
              <mxPoint x="870" y="317" />
              <mxPoint x="890" y="323" />
              <mxPoint x="900" y="317" />
              <mxPoint x="910" y="323" />
              <mxPoint x="930" y="323" />
              <mxPoint x="950" y="317" />
            </Array>
          </mxGeometry>
        </mxCell>
        <mxCell id="dk1dqKSrUgwjKV17HSef-253" value="" style="endArrow=none;html=1;rounded=0;fontSize=14;elbow=vertical;jumpStyle=none;fillColor=#f8cecc;strokeColor=#b85450;" edge="1" parent="1">
          <mxGeometry width="50" height="50" relative="1" as="geometry">
            <mxPoint x="790" y="342.5" as="sourcePoint" />
            <mxPoint x="970" y="342.5" as="targetPoint" />
            <Array as="points">
              <mxPoint x="834" y="337" />
              <mxPoint x="860" y="343" />
              <mxPoint x="900" y="337" />
              <mxPoint x="930" y="343" />
              <mxPoint x="950" y="337" />
            </Array>
          </mxGeometry>
        </mxCell>
        <mxCell id="dk1dqKSrUgwjKV17HSef-254" value="" style="rounded=0;whiteSpace=wrap;html=1;fontSize=14;fillColor=#d5e8d4;strokeColor=#82b366;" vertex="1" parent="1">
          <mxGeometry x="800" y="380" width="180" height="20" as="geometry" />
        </mxCell>
        <mxCell id="dk1dqKSrUgwjKV17HSef-255" value="" style="rounded=0;whiteSpace=wrap;html=1;fontSize=14;fillColor=#f8cecc;strokeColor=#b85450;" vertex="1" parent="1">
          <mxGeometry x="800" y="340" width="180" height="20" as="geometry" />
        </mxCell>
        <mxCell id="dk1dqKSrUgwjKV17HSef-256" value="" style="rounded=0;whiteSpace=wrap;html=1;fontSize=14;fillColor=#ffe6cc;strokeColor=#d79b00;" vertex="1" parent="1">
          <mxGeometry x="800" y="320" width="180" height="20" as="geometry" />
        </mxCell>
        <mxCell id="dk1dqKSrUgwjKV17HSef-257" value="" style="rounded=0;whiteSpace=wrap;html=1;fontSize=14;fillColor=#fff2cc;strokeColor=#d6b656;" vertex="1" parent="1">
          <mxGeometry x="800" y="300" width="180" height="20" as="geometry" />
        </mxCell>
        <mxCell id="dk1dqKSrUgwjKV17HSef-258" value="" style="rounded=0;whiteSpace=wrap;html=1;fontSize=14;fillColor=#dae8fc;strokeColor=#6c8ebf;" vertex="1" parent="1">
          <mxGeometry x="800" y="280" width="180" height="20" as="geometry" />
        </mxCell>
        <mxCell id="dk1dqKSrUgwjKV17HSef-259" value="" style="rounded=0;whiteSpace=wrap;html=1;fontSize=14;fillColor=#e1d5e7;strokeColor=#9673a6;" vertex="1" parent="1">
          <mxGeometry x="800" y="360" width="180" height="20" as="geometry" />
        </mxCell>
        <mxCell id="dk1dqKSrUgwjKV17HSef-260" value="" style="endArrow=none;html=1;rounded=0;fontSize=14;elbow=vertical;jumpStyle=none;fillColor=#dae8fc;strokeColor=#6c8ebf;" edge="1" parent="1">
          <mxGeometry width="50" height="50" relative="1" as="geometry">
            <mxPoint x="800" y="289.5" as="sourcePoint" />
            <mxPoint x="980" y="289.5" as="targetPoint" />
            <Array as="points">
              <mxPoint x="844" y="284" />
              <mxPoint x="870" y="290" />
              <mxPoint x="910" y="284" />
              <mxPoint x="940" y="290" />
              <mxPoint x="960" y="284" />
            </Array>
          </mxGeometry>
        </mxCell>
        <mxCell id="dk1dqKSrUgwjKV17HSef-261" value="" style="endArrow=none;html=1;rounded=0;fontSize=14;elbow=vertical;jumpStyle=none;fillColor=#fff2cc;strokeColor=#d6b656;" edge="1" parent="1">
          <mxGeometry width="50" height="50" relative="1" as="geometry">
            <mxPoint x="800" y="309.5" as="sourcePoint" />
            <mxPoint x="980" y="309.5" as="targetPoint" />
            <Array as="points">
              <mxPoint x="830" y="310" />
              <mxPoint x="844" y="304" />
              <mxPoint x="870" y="310" />
              <mxPoint x="910" y="304" />
              <mxPoint x="920" y="310" />
              <mxPoint x="940" y="310" />
              <mxPoint x="960" y="304" />
            </Array>
          </mxGeometry>
        </mxCell>
        <mxCell id="dk1dqKSrUgwjKV17HSef-262" value="" style="endArrow=none;html=1;rounded=0;fontSize=14;elbow=vertical;jumpStyle=none;fillColor=#e1d5e7;strokeColor=#9673a6;" edge="1" parent="1">
          <mxGeometry width="50" height="50" relative="1" as="geometry">
            <mxPoint x="800" y="367" as="sourcePoint" />
            <mxPoint x="980" y="372.5" as="targetPoint" />
            <Array as="points">
              <mxPoint x="830" y="373" />
              <mxPoint x="844" y="367" />
              <mxPoint x="870" y="373" />
              <mxPoint x="880" y="367" />
              <mxPoint x="900" y="373" />
              <mxPoint x="910" y="367" />
              <mxPoint x="920" y="373" />
              <mxPoint x="940" y="373" />
              <mxPoint x="960" y="367" />
            </Array>
          </mxGeometry>
        </mxCell>
        <mxCell id="dk1dqKSrUgwjKV17HSef-263" value="" style="endArrow=none;html=1;rounded=0;fontSize=14;elbow=vertical;jumpStyle=none;fillColor=#d5e8d4;strokeColor=#82b366;" edge="1" parent="1">
          <mxGeometry width="50" height="50" relative="1" as="geometry">
            <mxPoint x="800" y="392.5" as="sourcePoint" />
            <mxPoint x="980" y="392.5" as="targetPoint" />
            <Array as="points">
              <mxPoint x="830" y="393" />
              <mxPoint x="844" y="387" />
              <mxPoint x="870" y="393" />
              <mxPoint x="910" y="387" />
              <mxPoint x="920" y="393" />
              <mxPoint x="940" y="393" />
              <mxPoint x="960" y="387" />
            </Array>
          </mxGeometry>
        </mxCell>
        <mxCell id="dk1dqKSrUgwjKV17HSef-264" value="" style="endArrow=none;html=1;rounded=0;fontSize=14;elbow=vertical;jumpStyle=none;fillColor=#ffe6cc;strokeColor=#d79b00;" edge="1" parent="1">
          <mxGeometry width="50" height="50" relative="1" as="geometry">
            <mxPoint x="800" y="327" as="sourcePoint" />
            <mxPoint x="980" y="332.5" as="targetPoint" />
            <Array as="points">
              <mxPoint x="830" y="333" />
              <mxPoint x="844" y="327" />
              <mxPoint x="870" y="333" />
              <mxPoint x="880" y="327" />
              <mxPoint x="900" y="333" />
              <mxPoint x="910" y="327" />
              <mxPoint x="920" y="333" />
              <mxPoint x="940" y="333" />
              <mxPoint x="960" y="327" />
            </Array>
          </mxGeometry>
        </mxCell>
        <mxCell id="dk1dqKSrUgwjKV17HSef-265" value="" style="endArrow=none;html=1;rounded=0;fontSize=14;elbow=vertical;jumpStyle=none;fillColor=#f8cecc;strokeColor=#b85450;" edge="1" parent="1">
          <mxGeometry width="50" height="50" relative="1" as="geometry">
            <mxPoint x="800" y="352.5" as="sourcePoint" />
            <mxPoint x="980" y="352.5" as="targetPoint" />
            <Array as="points">
              <mxPoint x="844" y="347" />
              <mxPoint x="870" y="353" />
              <mxPoint x="910" y="347" />
              <mxPoint x="940" y="353" />
              <mxPoint x="960" y="347" />
            </Array>
          </mxGeometry>
        </mxCell>
        <mxCell id="dk1dqKSrUgwjKV17HSef-266" value="&lt;ul&gt;&lt;li&gt;&lt;b&gt;Ls&lt;/b&gt; : Signal Length&lt;br&gt;&lt;/li&gt;&lt;li&gt;&lt;b&gt;C&lt;/b&gt; : Number of Components&lt;br&gt;&lt;/li&gt;&lt;li&gt;&lt;b&gt;Nw&lt;/b&gt; : Number of Windows &lt;b&gt;(Ls - Ws)&lt;/b&gt;&lt;br&gt;&lt;/li&gt;&lt;li&gt;&lt;b&gt;Ws &lt;/b&gt;: Single Window Size&lt;br&gt;&lt;/li&gt;&lt;/ul&gt;" style="text;strokeColor=none;fillColor=none;html=1;whiteSpace=wrap;verticalAlign=middle;overflow=hidden;fontSize=14;" vertex="1" parent="1">
          <mxGeometry x="1010" y="225" width="280" height="90" as="geometry" />
        </mxCell>
      </root>
    </mxGraphModel>
  </diagram>
</mxfile>
